<?xml version="1.0" standalone="no"?>
<!DOCTYPE svg PUBLIC "-//W3C//DTD SVG 20010904//EN"
 "http://www.w3.org/TR/2001/REC-SVG-20010904/DTD/svg10.dtd">
<svg version="1.0" xmlns="http://www.w3.org/2000/svg"
 width="250.000000pt" height="264.000000pt" viewBox="0 0 250.000000 264.000000"
 preserveAspectRatio="xMidYMid meet">

<g transform="translate(0.000000,264.000000) scale(0.100000,-0.100000)"
fill="#000000" stroke="none">
<path d="M1623 2580 c-12 -5 -29 -25 -37 -45 -8 -19 -26 -40 -40 -47 -15 -6
-26 -15 -26 -20 0 -4 -15 -25 -34 -46 -19 -20 -36 -48 -37 -62 -3 -17 -16 -30
-42 -43 -30 -14 -38 -23 -35 -40 2 -15 -5 -27 -25 -40 -15 -9 -32 -28 -36 -41
-5 -13 -17 -26 -25 -29 -9 -4 -16 -11 -16 -16 0 -6 -21 -32 -47 -58 -25 -26
-58 -75 -73 -108 -24 -53 -34 -64 -86 -93 -44 -25 -68 -47 -91 -85 -18 -29
-33 -62 -33 -74 0 -28 -34 -67 -105 -123 -121 -94 -135 -109 -135 -149 0 -28
-9 -47 -43 -86 -23 -28 -50 -67 -59 -87 -11 -23 -42 -57 -79 -85 -40 -31 -69
-63 -83 -92 -12 -26 -39 -58 -63 -75 -23 -17 -59 -53 -79 -81 -21 -27 -50 -63
-66 -78 -15 -16 -28 -37 -28 -47 0 -21 -68 -110 -137 -178 -40 -41 -43 -48
-43 -97 0 -58 16 -85 52 -85 11 0 33 -9 49 -20 35 -25 49 -19 104 42 22 24 53
52 71 63 18 11 58 37 88 59 31 21 75 42 99 48 50 11 132 2 151 -18 21 -20 30
-134 17 -191 -6 -26 -14 -82 -17 -123 -3 -41 -9 -79 -13 -85 -5 -5 -11 -24
-14 -41 -10 -53 65 -134 124 -134 31 0 59 28 59 59 0 13 23 48 56 85 57 64 74
90 144 233 54 108 106 165 183 202 34 16 70 32 79 35 9 3 28 22 42 43 13 21
61 76 107 123 45 47 103 110 127 140 25 30 80 93 121 140 42 47 89 102 104
122 15 21 50 60 77 86 28 27 50 53 50 57 0 13 119 124 150 140 17 9 33 22 36
30 3 8 16 17 27 21 26 8 87 76 103 114 19 45 124 155 152 160 15 3 31 14 37
25 6 11 27 37 48 58 44 46 47 73 10 89 -16 6 -42 18 -59 26 -30 14 -35 14 -83
-7 -29 -12 -66 -23 -84 -25 -29 -3 -217 -107 -278 -155 -24 -19 -28 -19 -70
-4 -28 9 -62 13 -94 9 -48 -5 -52 -3 -98 39 l-48 44 32 35 c17 20 29 43 27 53
-4 24 -61 39 -93 25 -42 -19 -31 15 41 134 37 60 76 124 86 142 15 24 18 42
14 67 -5 24 -2 42 9 57 21 31 19 52 -7 83 -25 28 -79 40 -115 25z m91 -62 c2
-12 -3 -32 -11 -45 -13 -20 -14 -31 -6 -54 10 -27 6 -37 -57 -138 -79 -126
-110 -184 -110 -206 0 -8 -11 -25 -25 -37 -14 -12 -25 -25 -25 -30 0 -17 30
-20 46 -4 8 9 20 14 25 11 5 -4 19 1 31 9 21 15 58 22 58 11 0 -2 -11 -21 -25
-41 -14 -20 -25 -40 -25 -43 0 -4 29 -32 65 -63 l64 -56 64 5 c35 3 72 1 82
-4 15 -9 12 -13 -21 -30 -27 -14 -47 -34 -64 -69 -14 -27 -34 -63 -45 -81 -10
-18 -16 -36 -11 -40 14 -14 39 13 75 81 27 50 45 72 68 81 17 7 48 29 69 48
22 18 62 47 89 62 28 15 77 45 110 65 33 21 76 39 95 42 19 3 56 13 82 24 43
16 49 17 65 2 10 -9 27 -18 38 -20 17 -3 12 -11 -33 -56 -28 -28 -58 -52 -65
-52 -15 0 -133 -134 -157 -178 -25 -47 -54 -78 -88 -96 -18 -9 -32 -21 -32
-26 0 -6 -20 -20 -45 -32 -25 -12 -45 -26 -45 -31 0 -5 -24 -33 -52 -62 -67
-67 -163 -173 -185 -205 -9 -14 -51 -63 -93 -110 -42 -47 -97 -110 -122 -140
-25 -30 -87 -98 -137 -150 -50 -52 -93 -103 -96 -112 -3 -9 -43 -35 -89 -57
-102 -49 -155 -104 -210 -217 -21 -43 -49 -93 -62 -111 -13 -17 -24 -38 -24
-46 0 -8 -27 -44 -60 -80 -33 -36 -60 -73 -60 -82 0 -21 -18 -55 -29 -55 -15
0 -91 72 -91 87 0 8 7 27 15 44 9 16 17 64 19 108 2 44 9 96 16 116 12 36 10
84 -7 169 -11 56 -47 74 -143 75 -55 0 -86 -5 -115 -19 -67 -33 -167 -105
-220 -160 l-50 -52 -29 23 c-15 12 -37 22 -49 23 -18 1 -23 8 -25 36 -2 29 3
41 28 65 54 53 150 176 150 193 0 9 19 37 41 62 23 25 54 64 70 87 16 23 37
44 47 48 26 8 62 48 81 90 9 19 43 56 75 82 34 28 70 67 83 93 13 25 34 56 47
70 40 44 56 74 56 106 0 34 6 40 131 139 86 68 96 81 112 135 19 66 59 113
123 150 48 27 59 39 83 93 16 36 48 83 75 109 25 26 46 50 46 55 0 4 9 14 20
21 11 7 20 19 20 27 0 9 16 25 35 36 25 15 35 28 35 46 0 18 8 27 29 34 26 9
51 44 51 73 0 6 29 42 65 79 36 37 65 74 65 82 0 40 83 33 94 -7z"/>
<path d="M1481 1872 c-16 -47 -12 -71 12 -86 15 -9 24 -5 53 26 18 21 34 42
34 47 0 10 -62 51 -77 51 -5 0 -15 -17 -22 -38z"/>
<path d="M1620 1801 c0 -10 -7 -24 -15 -31 -26 -22 -19 -68 14 -84 25 -13 31
-13 50 0 11 8 28 28 36 44 14 28 14 29 -22 59 -43 35 -63 39 -63 12z m20 -71
c0 -5 -4 -10 -10 -10 -5 0 -10 5 -10 10 0 6 5 10 10 10 6 0 10 -4 10 -10z"/>
<path d="M1310 1785 c-14 -17 -7 -69 11 -92 6 -7 20 -13 31 -13 13 0 25 -14
38 -45 11 -25 24 -45 29 -45 5 0 23 -11 39 -24 59 -50 172 -73 224 -45 22 12
25 59 3 59 -8 0 -15 -6 -15 -14 0 -8 -15 -16 -37 -19 -46 -8 -114 14 -155 49
-16 13 -33 24 -38 24 -5 0 -15 19 -22 43 -12 34 -20 43 -44 47 -26 5 -29 9
-29 44 0 43 -15 56 -35 31z"/>
<path d="M1484 1723 c-3 -10 -10 -28 -15 -41 -15 -37 -11 -45 16 -38 19 5 25
2 25 -10 0 -9 7 -14 18 -12 9 2 15 11 13 19 -2 8 -4 32 -5 54 -1 33 -5 41 -24
43 -14 2 -24 -3 -28 -15z"/>
<path d="M1204 1603 c-23 -24 -45 -79 -38 -97 3 -8 14 -18 24 -21 17 -5 17 -8
3 -35 -11 -22 -11 -34 -3 -50 6 -11 14 -20 18 -20 4 0 7 -15 7 -32 0 -26 4
-33 20 -33 11 0 26 -4 33 -8 8 -6 20 -3 32 8 11 10 20 12 24 6 18 -29 186 34
194 73 5 22 -12 20 -64 -9 -33 -19 -60 -25 -111 -26 -94 -2 -95 -2 -88 20 4
13 -1 24 -16 34 -21 15 -21 16 -4 45 21 35 14 62 -15 62 -25 0 -25 11 0 43 35
44 21 77 -16 40z"/>
</g>
</svg>
