<?xml version="1.0" encoding="UTF-8"?>
<svg id="Layer_1" data-name="Layer 1" xmlns="http://www.w3.org/2000/svg" viewBox="0 0 64 25">
  <defs>
    <style>
      .cls-1 {
        fill: #1a5276;
      }

      .cls-1, .cls-2 {
        stroke-width: 0px;
      }

      .cls-3 {
        opacity: .35;
      }

      .cls-2 {
        fill: #fff;
      }
    </style>
  </defs>
  <g>
    <path class="cls-2" d="M12.32,21.38c-4.9,0-8.88-3.98-8.88-8.88S7.43,3.62,12.32,3.62h39.36c4.9,0,8.88,3.98,8.88,8.88s-3.98,8.88-8.88,8.88H12.32Z"/>
    <path class="cls-1" d="M51.68,7.03c3.02,0,5.47,2.45,5.47,5.47s-2.45,5.47-5.47,5.47H12.32c-3.02,0-5.47-2.45-5.47-5.47s2.45-5.47,5.47-5.47h39.36ZM51.68.21H12.32C5.54.21.03,5.72.03,12.5s5.52,12.29,12.29,12.29h39.36c6.78,0,12.29-5.52,12.29-12.29S58.46.21,51.68.21h0Z"/>
  </g>
  <g class="cls-3">
    <path class="cls-1" d="M51.68,7.03h-7.8c3.02,0,5.47,2.45,5.47,5.47s-2.45,5.47-5.47,5.47h7.8c3.02,0,5.47-2.45,5.47-5.47s-2.45-5.47-5.47-5.47Z"/>
  </g>
</svg>