<?xml version="1.0" encoding="UTF-8"?>
<svg id="Layer_1" data-name="Layer 1" xmlns="http://www.w3.org/2000/svg" viewBox="0 0 100 100">
  <defs>
    <style>
      .cls-1 {
        fill: #edbb99;
      }

      .cls-1, .cls-2, .cls-3 {
        stroke-width: 0px;
      }

      .cls-2 {
        fill: #f4d6c2;
      }

      .cls-3 {
        fill: #1a5276;
      }

      .cls-4 {
        opacity: .35;
      }
    </style>
  </defs>
  <g>
    <g>
      <path class="cls-1" d="M68.72,94.94c-1.24.29-2.53.43-3.82.42l-47.97-.4c-8.47-.07-15.31-6.57-15.24-14.49l.39-47.26c.02-1.89.44-3.78,1.24-5.53-.78-1.71-1.16-3.51-1.15-5.37.03-4.19,2.2-11.83,16.32-15.81.82-.23,1.68-.45,2.57-.66,5.99-1.38,13.12-2.08,20.62-2.02,8.59.07,16.8,1.16,23.14,3.06,14.05,4.22,16.09,11.89,16.05,16.08-.02,1.86-.43,3.66-1.24,5.35.77,1.76,1.16,3.66,1.15,5.55l-.39,47.26c-.05,6.57-4.85,12.25-11.66,13.82Z"/>
      <path class="cls-3" d="M21.52,7.81c5.78-1.33,12.82-2.03,20.14-1.97,8.4.07,16.42,1.13,22.57,2.97,12.78,3.84,14.64,10.49,14.61,14.12-.01,1.45-.33,3.35-1.48,5.33.92,1.72,1.41,3.62,1.39,5.57l-.39,47.26c-.05,5.73-4.34,10.53-10.09,11.86-1.07.25-2.19.37-3.34.36l-47.97-.4c-7.35-.06-13.29-5.64-13.23-12.45l.39-47.26c.02-1.95.53-3.84,1.48-5.54-1.12-2-1.4-3.9-1.39-5.35.03-3.63,2-10.25,14.84-13.88.79-.22,1.62-.43,2.47-.63h0ZM20.61,3.86c-.91.21-1.81.44-2.66.68C2.55,8.88.19,17.52.15,22.29c-.01,1.83.32,3.65.98,5.38-.69,1.77-1.05,3.64-1.07,5.52l-.39,47.26c-.07,9.04,7.67,16.46,17.26,16.54l47.97.4c1.45.01,2.89-.15,4.29-.47,7.73-1.78,13.18-8.28,13.24-15.78l.39-47.26c.02-1.88-.32-3.76-.98-5.54.69-1.71,1.05-3.54,1.07-5.36.04-4.76-2.18-13.44-17.5-18.04-6.51-1.96-14.93-3.07-23.7-3.14-7.65-.06-14.95.65-21.09,2.07h0Z"/>
    </g>
    <g class="cls-4">
      <path class="cls-3" d="M79.31,22.89c.03-3.63-1.86-10.28-14.85-14.12-6.25-1.85-14.4-2.91-22.94-2.98-8.54-.07-16.7.85-22.98,2.6-4.59,1.27-7.8,2.92-10.05,4.67,5.17-.9,11.07-1.36,17.17-1.31,8.54.07,16.68,1.13,22.94,2.98,12.99,3.84,14.88,10.5,14.85,14.12-.01,1.45-.33,3.35-1.5,5.33.93,1.72,1.43,3.62,1.41,5.57l-.39,47.26c-.02,2.28-.73,4.41-1.94,6.23l4.15.03c7.47.06,13.59-5.42,13.65-12.22l.39-47.26c.02-1.95-.48-3.85-1.41-5.57,1.17-1.98,1.49-3.88,1.5-5.33Z"/>
    </g>
  </g>
  <g>
    <g>
      <path class="cls-1" d="M85.49,94.94c-1.24.29-2.53.43-3.82.42l-47.97-.4c-8.47-.07-15.31-6.57-15.24-14.49l.39-47.26c.02-1.89.44-3.78,1.24-5.53-.78-1.71-1.16-3.51-1.15-5.37.03-4.19,2.2-11.83,16.32-15.81.82-.23,1.68-.45,2.57-.66,5.99-1.38,13.12-2.08,20.62-2.02,8.59.07,16.8,1.16,23.14,3.06,14.05,4.22,16.09,11.89,16.05,16.08-.02,1.86-.43,3.66-1.24,5.35.77,1.76,1.16,3.66,1.15,5.55l-.39,47.26c-.05,6.57-4.85,12.25-11.66,13.82Z"/>
      <path class="cls-3" d="M38.28,7.81c5.78-1.33,12.82-2.03,20.14-1.97,8.4.07,16.42,1.13,22.57,2.97,12.78,3.84,14.64,10.49,14.61,14.12-.01,1.45-.33,3.35-1.48,5.33.92,1.72,1.41,3.62,1.39,5.57l-.39,47.26c-.05,5.73-4.34,10.53-10.09,11.86-1.07.25-2.19.37-3.34.36l-47.97-.4c-7.35-.06-13.29-5.64-13.23-12.45l.39-47.26c.02-1.95.53-3.84,1.48-5.54-1.12-2-1.4-3.9-1.39-5.35.03-3.63,2-10.25,14.84-13.88.79-.22,1.62-.43,2.47-.63h0ZM37.37,3.86c-.91.21-1.81.44-2.66.68-15.39,4.35-17.76,12.99-17.8,17.75-.01,1.83.32,3.65.98,5.38-.69,1.77-1.05,3.64-1.07,5.52l-.39,47.26c-.07,9.04,7.67,16.46,17.26,16.54l47.97.4c1.45.01,2.89-.15,4.29-.47,7.73-1.78,13.18-8.28,13.24-15.78l.39-47.26c.02-1.88-.32-3.76-.98-5.54.69-1.71,1.05-3.54,1.07-5.36.04-4.76-2.18-13.44-17.5-18.04-6.51-1.96-14.93-3.07-23.7-3.14-7.65-.06-14.95.65-21.09,2.07h0Z"/>
    </g>
    <g>
      <path class="cls-2" d="M83.15,86.23c-.46.11-.93.16-1.4.15l-47.97-.4c-1.5-.01-2.91-.57-3.97-1.57-1.1-1.03-1.7-2.41-1.68-3.87l.39-47.26c.02-2.47,1.8-4.61,4.34-5.2.13-.03.25-.05.38-.07-3.09-1.58-4.64-3.47-4.63-5.63.03-3.39,4.03-6.11,11.58-7.85,5.12-1.18,11.58-1.8,18.18-1.75,7.63.06,14.82,1,20.24,2.62,6.15,1.85,9.38,4.43,9.35,7.47-.02,2.16-1.6,4.02-4.72,5.55,1.11.2,2.13.71,2.95,1.47,1.1,1.03,1.7,2.41,1.68,3.87l-.39,47.26c-.02,2.47-1.8,4.61-4.34,5.2h0Z"/>
      <path class="cls-3" d="M40.57,16.18c4.84-1.12,11.04-1.76,17.78-1.71,15.46.13,27.96,3.88,27.92,8.38-.02,2.04-2.6,3.88-6.86,5.28-1.1.36-.83,1.85.33,1.86l2.47.02c2.21.02,3.99,1.69,3.97,3.74l-.39,47.26c-.01,1.72-1.3,3.16-3.03,3.56-.32.07-.66.11-1.01.11l-47.97-.4c-2.21-.02-3.99-1.69-3.97-3.74l.39-47.26c.01-1.72,1.3-3.16,3.03-3.56.32-.07.66-.11,1.01-.11l2.47.02c.1,0,.2,0,.28-.03.92-.21,1.07-1.48.08-1.83-4.24-1.46-6.79-3.35-6.78-5.39.02-2.54,4.02-4.77,10.27-6.21h0ZM39.81,12.89c-8.52,1.97-12.86,5.16-12.89,9.48-.02,2.01.91,3.8,2.77,5.35-1.75,1.3-2.84,3.32-2.86,5.55l-.39,47.26c-.02,1.91.79,3.78,2.22,5.12,1.37,1.29,3.19,2.01,5.11,2.03l47.97.4c.61,0,1.21-.06,1.8-.2,3.3-.76,5.62-3.57,5.65-6.83l.39-47.26c.02-1.91-.79-3.78-2.22-5.12-.18-.17-.36-.33-.56-.47,1.89-1.52,2.85-3.29,2.86-5.3.03-3.92-3.52-6.99-10.56-9.1-5.57-1.67-12.93-2.63-20.72-2.69-6.82-.06-13.25.56-18.57,1.79h0Z"/>
    </g>
    <g class="cls-4">
      <path class="cls-3" d="M96.08,22.89c.03-3.63-1.86-10.28-14.85-14.12-6.25-1.85-14.4-2.91-22.94-2.98-8.54-.07-16.7.85-22.98,2.6-4.59,1.27-7.8,2.92-10.05,4.67,5.17-.9,11.07-1.36,17.17-1.31,8.54.07,16.68,1.13,22.94,2.98,12.99,3.84,14.88,10.5,14.85,14.12-.01,1.45-.33,3.35-1.5,5.33.93,1.72,1.43,3.62,1.41,5.57l-.39,47.26c-.02,2.28-.73,4.41-1.94,6.23l4.15.03c7.47.06,13.59-5.42,13.65-12.22l.39-47.26c.02-1.95-.48-3.85-1.41-5.57,1.17-1.98,1.49-3.88,1.5-5.33Z"/>
    </g>
  </g>
</svg>