<?xml version="1.0" encoding="UTF-8"?>
<svg id="Layer_1" data-name="Layer 1" xmlns="http://www.w3.org/2000/svg" viewBox="0 0 300 200">
  <defs>
    <style>
      .cls-1 {
        fill: #d7ccc8;
      }

      .cls-1, .cls-2, .cls-3, .cls-4, .cls-5, .cls-6, .cls-7, .cls-8 {
        stroke-width: 0px;
      }

      .cls-2 {
        fill: #5c6a79;
      }

      .cls-3 {
        fill: #90caf9;
      }

      .cls-4 {
        fill: #b2babb;
      }

      .cls-5 {
        fill: #fff59d;
      }

      .cls-6 {
        fill: #1a5276;
      }

      .cls-9 {
        opacity: .3;
      }

      .cls-10 {
        opacity: .35;
      }

      .cls-7 {
        fill: #707b7c;
      }

      .cls-8 {
        fill: #fff;
      }
    </style>
  </defs>
  <g>
    <path class="cls-6" d="M277.97,107.87h2.47c-.1-.62-.2-1.23-.31-1.84-.65-.05-1.36-.08-2.16-.08-1.15,0-2.08.86-2.08,1.91s.93,1.91,2.08,1.91,2.02.05,2.79.15c-.1-.66-.2-1.31-.3-1.95-.72-.07-1.53-.11-2.49-.11Z"/>
    <path class="cls-6" d="M277.97,107.87c.95,0,1.76.04,2.49.11,0-.04-.01-.07-.02-.11h-2.47Z"/>
    <g>
      <g>
        <g>
          <path class="cls-7" d="M42.26,197.02c-5.55,0-10.06-4.51-10.06-10.06v-15.37c0-5.55,4.51-10.06,10.06-10.06s10.06,4.51,10.06,10.06v15.37c0,5.55-4.51,10.06-10.06,10.06Z"/>
          <path class="cls-6" d="M42.26,165.43c3.4,0,6.16,2.76,6.16,6.16v15.37c0,3.4-2.76,6.16-6.16,6.16s-6.16-2.76-6.16-6.16v-15.37c0-3.4,2.76-6.16,6.16-6.16h0ZM42.26,157.62c-7.7,0-13.97,6.26-13.97,13.97v15.37c0,7.7,6.26,13.97,13.97,13.97s13.97-6.26,13.97-13.97v-15.37c0-7.7-6.26-13.97-13.97-13.97h0Z"/>
        </g>
        <g>
          <path class="cls-7" d="M101.36,197.02c-5.55,0-10.06-4.51-10.06-10.06v-15.37c0-5.55,4.51-10.06,10.06-10.06s10.06,4.51,10.06,10.06v15.37c0,5.55-4.51,10.06-10.06,10.06Z"/>
          <path class="cls-6" d="M101.36,165.43c3.4,0,6.16,2.76,6.16,6.16v15.37c0,3.4-2.76,6.16-6.16,6.16s-6.16-2.76-6.16-6.16v-15.37c0-3.4,2.76-6.16,6.16-6.16h0ZM101.36,157.62c-7.7,0-13.97,6.26-13.97,13.97v15.37c0,7.7,6.26,13.97,13.97,13.97s13.97-6.26,13.97-13.97v-15.37c0-7.7-6.26-13.97-13.97-13.97h0Z"/>
        </g>
        <g>
          <path class="cls-7" d="M195.31,197.02c-5.55,0-10.06-4.51-10.06-10.06v-15.37c0-5.55,4.51-10.06,10.06-10.06s10.06,4.51,10.06,10.06v15.37c0,5.55-4.51,10.06-10.06,10.06Z"/>
          <path class="cls-6" d="M195.31,165.43c3.4,0,6.16,2.76,6.16,6.16v15.37c0,3.4-2.76,6.16-6.16,6.16s-6.16-2.76-6.16-6.16v-15.37c0-3.4,2.76-6.16,6.16-6.16h0ZM195.31,157.62c-7.7,0-13.97,6.26-13.97,13.97v15.37c0,7.7,6.26,13.97,13.97,13.97s13.97-6.26,13.97-13.97v-15.37c0-7.7-6.26-13.97-13.97-13.97h0Z"/>
        </g>
        <g>
          <path class="cls-7" d="M254.42,197.02c-5.55,0-10.06-4.51-10.06-10.06v-15.37c0-5.55,4.51-10.06,10.06-10.06s10.06,4.51,10.06,10.06v15.37c0,5.55-4.51,10.06-10.06,10.06Z"/>
          <path class="cls-6" d="M254.42,165.43c3.4,0,6.16,2.76,6.16,6.16v15.37c0,3.4-2.76,6.16-6.16,6.16s-6.16-2.76-6.16-6.16v-15.37c0-3.4,2.76-6.16,6.16-6.16h0ZM254.42,157.62c-7.7,0-13.97,6.26-13.97,13.97v15.37c0,7.7,6.26,13.97,13.97,13.97s13.97-6.26,13.97-13.97v-15.37c0-7.7-6.26-13.97-13.97-13.97h0Z"/>
        </g>
        <g>
          <path class="cls-3" d="M28.99,169.33c-2.15,0-3.9-1.75-3.9-3.9V33.12c0-15.6,12.69-28.29,28.29-28.29h123.23c15.6,0,28.29,12.69,28.29,28.29v132.31c0,2.15-1.75,3.9-3.9,3.9H28.99Z"/>
          <path class="cls-6" d="M176.61,8.73c13.47,0,24.39,10.92,24.39,24.39v132.31H28.99V33.12c0-13.47,10.92-24.39,24.39-24.39h123.23ZM176.61.92H53.38C35.63.92,21.19,15.37,21.19,33.12v132.31c0,4.31,3.49,7.8,7.8,7.8h172c4.31,0,7.8-3.49,7.8-7.8V33.12c0-17.75-14.44-32.19-32.19-32.19h0Z"/>
        </g>
        <g class="cls-10">
          <rect class="cls-6" x="52.12" y="28.38" width="16.81" height="91.88" rx="7.76" ry="7.76"/>
          <rect class="cls-6" x="76.9" y="28.38" width="16.81" height="91.88" rx="7.76" ry="7.76"/>
        </g>
        <g class="cls-9">
          <path class="cls-8" d="M38.75,39.94c0-13.47,10.92-24.39,24.39-24.39h123.23c3.05,0,5.98.57,8.67,1.59-4.47-5.16-11.06-8.42-18.43-8.42H53.38c-13.47,0-24.39,10.92-24.39,24.39v132.31h9.75V39.94Z"/>
        </g>
        <g>
          <path class="cls-3" d="M119.73,169.33c-2.15,0-3.9-1.75-3.9-3.9V33.12c0-15.6,12.69-28.29,28.29-28.29h102.82c15.6,0,28.29,12.69,28.29,28.29v132.31c0,2.15-1.75,3.9-3.9,3.9H119.73Z"/>
          <path class="cls-6" d="M246.94,8.73c13.47,0,24.39,10.92,24.39,24.39v132.31H119.73V33.12c0-13.47,10.92-24.39,24.39-24.39h102.82ZM246.94.92h-102.82c-17.75,0-32.19,14.44-32.19,32.19v132.31c0,4.31,3.49,7.8,7.8,7.8h151.6c4.31,0,7.8-3.49,7.8-7.8V33.12c0-17.75-14.44-32.19-32.19-32.19h0Z"/>
        </g>
        <g>
          <g>
            <rect class="cls-2" x="52.12" y="31.31" width="10.95" height="86.02" rx="4.83" ry="4.83"/>
            <path class="cls-6" d="M58.25,34.24c1.05,0,1.9.85,1.9,1.9v76.36c0,1.05-.85,1.9-1.9,1.9h-1.3c-1.05,0-1.9-.85-1.9-1.9V36.14c0-1.05.85-1.9,1.9-1.9h1.3ZM58.25,28.38h-1.3c-4.28,0-7.76,3.48-7.76,7.76v76.36c0,4.28,3.48,7.76,7.76,7.76h1.3c4.28,0,7.76-3.48,7.76-7.76V36.14c0-4.28-3.48-7.76-7.76-7.76h0Z"/>
          </g>
          <g>
            <rect class="cls-2" x="76.9" y="31.31" width="10.95" height="86.02" rx="4.83" ry="4.83"/>
            <path class="cls-6" d="M83.03,34.24c1.05,0,1.9.85,1.9,1.9v76.36c0,1.05-.85,1.9-1.9,1.9h-1.3c-1.05,0-1.9-.85-1.9-1.9V36.14c0-1.05.85-1.9,1.9-1.9h1.3ZM83.03,28.38h-1.3c-4.28,0-7.76,3.48-7.76,7.76v76.36c0,4.28,3.48,7.76,7.76,7.76h1.3c4.28,0,7.76-3.48,7.76-7.76V36.14c0-4.28-3.48-7.76-7.76-7.76h0Z"/>
          </g>
        </g>
        <g>
          <g>
            <path class="cls-8" d="M98.31,149.84c-4.41,0-8-3.59-8-8s3.59-8,8-8,8,3.59,8,8-3.59,8-8,8Z"/>
            <path class="cls-6" d="M98.31,136.27c3.07,0,5.57,2.49,5.57,5.57s-2.49,5.57-5.57,5.57-5.57-2.49-5.57-5.57,2.49-5.57,5.57-5.57h0ZM98.31,131.39c-5.76,0-10.44,4.69-10.44,10.44s4.68,10.44,10.44,10.44,10.44-4.68,10.44-10.44-4.69-10.44-10.44-10.44h0Z"/>
          </g>
          <g class="cls-10">
            <circle class="cls-6" cx="98.31" cy="141.84" r="5.57"/>
          </g>
          <g>
            <path class="cls-8" d="M91.05,149.84c-4.41,0-8-3.59-8-8s3.59-8,8-8,8,3.59,8,8-3.59,8-8,8Z"/>
            <path class="cls-6" d="M91.05,136.27c3.07,0,5.57,2.49,5.57,5.57s-2.49,5.57-5.57,5.57-5.57-2.49-5.57-5.57,2.49-5.57,5.57-5.57h0ZM91.05,131.39c-5.76,0-10.44,4.69-10.44,10.44s4.68,10.44,10.44,10.44,10.44-4.68,10.44-10.44-4.69-10.44-10.44-10.44h0Z"/>
          </g>
          <g class="cls-10">
            <path class="cls-6" d="M91.05,136.27c-.51,0-1,.07-1.46.2,2.36.64,4.1,2.8,4.1,5.36s-1.74,4.72-4.1,5.36c.47.13.96.2,1.46.2,3.07,0,5.57-2.49,5.57-5.57s-2.49-5.57-5.57-5.57Z"/>
          </g>
        </g>
        <g>
          <g>
            <path class="cls-8" d="M44.99,148.23c-3.3,0-5.98-2.68-5.98-5.98s2.68-5.98,5.98-5.98,5.98,2.68,5.98,5.98-2.68,5.98-5.98,5.98Z"/>
            <path class="cls-6" d="M44.99,138.7c1.96,0,3.55,1.59,3.55,3.55s-1.59,3.55-3.55,3.55-3.55-1.59-3.55-3.55,1.59-3.55,3.55-3.55h0ZM44.99,133.82c-4.64,0-8.42,3.78-8.42,8.42s3.78,8.42,8.42,8.42,8.42-3.78,8.42-8.42-3.78-8.42-8.42-8.42h0Z"/>
          </g>
          <g class="cls-10">
            <circle class="cls-6" cx="44.99" cy="142.25" r="3.55"/>
          </g>
          <g>
            <path class="cls-8" d="M38.86,148.23c-3.3,0-5.98-2.68-5.98-5.98s2.68-5.98,5.98-5.98,5.98,2.68,5.98,5.98-2.68,5.98-5.98,5.98Z"/>
            <path class="cls-6" d="M38.86,138.7c1.96,0,3.55,1.59,3.55,3.55s-1.59,3.55-3.55,3.55-3.55-1.59-3.55-3.55,1.59-3.55,3.55-3.55h0ZM38.86,133.82c-4.65,0-8.42,3.78-8.42,8.42s3.78,8.42,8.42,8.42,8.42-3.78,8.42-8.42-3.78-8.42-8.42-8.42h0Z"/>
          </g>
          <g class="cls-10">
            <path class="cls-6" d="M38.86,138.7c-.34,0-.66.06-.98.15,1.48.43,2.57,1.78,2.57,3.39s-1.09,2.97-2.57,3.39c.31.09.63.15.98.15,1.96,0,3.55-1.59,3.55-3.55s-1.59-3.55-3.55-3.55Z"/>
          </g>
        </g>
        <g>
          <g>
            <path class="cls-8" d="M68.82,148.23c-3.3,0-5.98-2.68-5.98-5.98s2.68-5.98,5.98-5.98,5.98,2.68,5.98,5.98-2.68,5.98-5.98,5.98Z"/>
            <path class="cls-6" d="M68.82,138.7c1.96,0,3.55,1.59,3.55,3.55s-1.59,3.55-3.55,3.55-3.55-1.59-3.55-3.55,1.59-3.55,3.55-3.55h0ZM68.82,133.82c-4.65,0-8.42,3.78-8.42,8.42s3.78,8.42,8.42,8.42,8.42-3.78,8.42-8.42-3.78-8.42-8.42-8.42h0Z"/>
          </g>
          <g class="cls-10">
            <circle class="cls-6" cx="68.82" cy="142.25" r="3.55"/>
          </g>
          <g>
            <path class="cls-8" d="M62.68,148.23c-3.3,0-5.98-2.68-5.98-5.98s2.68-5.98,5.98-5.98,5.98,2.68,5.98,5.98-2.68,5.98-5.98,5.98Z"/>
            <path class="cls-6" d="M62.68,138.7c1.96,0,3.55,1.59,3.55,3.55s-1.59,3.55-3.55,3.55-3.55-1.59-3.55-3.55,1.59-3.55,3.55-3.55h0ZM62.68,133.82c-4.65,0-8.42,3.78-8.42,8.42s3.78,8.42,8.42,8.42,8.42-3.78,8.42-8.42-3.78-8.42-8.42-8.42h0Z"/>
          </g>
          <g class="cls-10">
            <path class="cls-6" d="M62.68,138.7c-.34,0-.66.06-.98.15,1.48.43,2.57,1.78,2.57,3.39s-1.09,2.97-2.57,3.39c.31.09.63.15.98.15,1.96,0,3.55-1.59,3.55-3.55s-1.59-3.55-3.55-3.55Z"/>
          </g>
        </g>
        <g class="cls-10">
          <path class="cls-6" d="M89.67,54.64h-7.8c3.02,0,5.47,2.45,5.47,5.47s-2.45,5.47-5.47,5.47h7.8c3.02,0,5.47-2.45,5.47-5.47s-2.45-5.47-5.47-5.47Z"/>
        </g>
        <g class="cls-10">
          <rect class="cls-6" x="151.88" y="50.01" width="87.31" height="20.71" rx="9.71" ry="9.71"/>
          <rect class="cls-6" x="142.17" y="81.35" width="106.71" height="20.71" rx="9.71" ry="9.71"/>
        </g>
        <g>
          <g>
            <path class="cls-1" d="M161.58,50.01h67.89c3.2,0,5.8,2.6,5.8,5.8v1.3c0,3.2-2.6,5.8-5.8,5.8h-67.89c-3.2,0-5.8-2.6-5.8-5.8v-1.3c0-3.2,2.6-5.8,5.8-5.8Z"/>
            <path class="cls-6" d="M229.47,53.92c1.05,0,1.9.85,1.9,1.9v1.3c0,1.05-.85,1.9-1.9,1.9h-67.89c-1.05,0-1.9-.85-1.9-1.9v-1.3c0-1.05.85-1.9,1.9-1.9h67.89ZM229.47,46.11h-67.89c-5.35,0-9.71,4.35-9.71,9.71v1.3c0,5.35,4.35,9.71,9.71,9.71h67.89c5.35,0,9.71-4.35,9.71-9.71v-1.3c0-5.35-4.35-9.71-9.71-9.71h0Z"/>
          </g>
          <g>
            <path class="cls-1" d="M151.88,81.35h87.3c3.2,0,5.8,2.6,5.8,5.8v1.3c0,3.2-2.6,5.8-5.8,5.8h-87.3c-3.2,0-5.8-2.6-5.8-5.8v-1.3c0-3.2,2.6-5.8,5.8-5.8Z"/>
            <path class="cls-6" d="M239.18,85.25c1.05,0,1.9.85,1.9,1.9v1.3c0,1.05-.85,1.9-1.9,1.9h-87.3c-1.05,0-1.9-.85-1.9-1.9v-1.3c0-1.05.85-1.9,1.9-1.9h87.3ZM239.18,77.45h-87.3c-5.35,0-9.71,4.35-9.71,9.71v1.3c0,5.35,4.35,9.71,9.71,9.71h87.3c5.35,0,9.71-4.35,9.71-9.71v-1.3c0-5.35-4.35-9.71-9.71-9.71h0Z"/>
          </g>
        </g>
        <g class="cls-9">
          <path class="cls-8" d="M129.49,41.11c0-12.77,10.92-23.13,24.39-23.13h102.82c4.23,0,8.2,1.02,11.67,2.81-4.14-7.19-12.18-12.07-21.42-12.07h-102.82c-13.47,0-24.39,10.36-24.39,23.13v125.48h9.75V41.11Z"/>
        </g>
        <g class="cls-10">
          <path class="cls-6" d="M246.94,8.73h-38.23c.11.96.18,1.94.18,2.93v71.35c0,33.66-27.29,60.96-60.96,60.96h-28.21v21.46h151.6V33.12c0-13.47-10.92-24.39-24.39-24.39Z"/>
        </g>
        <g>
          <path class="cls-4" d="M14.6,179.53c-5.17,0-9.37-4.2-9.37-9.37s4.2-9.37,9.37-9.37h271.12c5.17,0,9.37,4.2,9.37,9.37s-4.2,9.37-9.37,9.37H14.6Z"/>
          <path class="cls-6" d="M285.72,164.7c3.02,0,5.47,2.45,5.47,5.47s-2.45,5.47-5.47,5.47H14.6c-3.02,0-5.47-2.45-5.47-5.47s2.45-5.47,5.47-5.47h271.12ZM285.72,156.89H14.6c-7.32,0-13.27,5.95-13.27,13.27s5.95,13.27,13.27,13.27h271.12c7.32,0,13.27-5.95,13.27-13.27s-5.95-13.27-13.27-13.27h0Z"/>
        </g>
        <g class="cls-9">
          <path class="cls-8" d="M21.81,174.06c0-3.02,2.45-5.47,5.47-5.47h263.68c-.67-2.26-2.76-3.9-5.24-3.9H14.6c-3.02,0-5.47,2.45-5.47,5.47s2.45,5.47,5.47,5.47h7.45c-.15-.5-.23-1.02-.23-1.56Z"/>
        </g>
      </g>
      <g>
        <g>
          <g>
            <path class="cls-5" d="M150.31,181.46c-1.03,0-2.01-.4-2.74-1.12-.74-.73-1.16-1.72-1.16-2.75l-.31-44.58c0-1.03.4-2.03,1.12-2.77.73-.74,1.72-1.16,2.75-1.16,0,0,53.09-.37,53.1-.37,2.14,0,3.89,1.73,3.9,3.87l.31,44.58c.01,2.15-1.72,3.91-3.87,3.93,0,0-53.09.37-53.1.37Z"/>
            <path class="cls-6" d="M203.07,132.61l.31,44.58-53.07.37-.31-44.58,53.07-.37h0ZM203.07,124.8h-.06l-53.07.37c-2.07.01-4.05.85-5.5,2.32-1.45,1.47-2.26,3.46-2.25,5.53l.31,44.58c.01,2.07.85,4.05,2.32,5.5,1.46,1.44,3.43,2.25,5.48,2.25h.05l53.07-.37c4.31-.03,7.78-3.55,7.75-7.86l-.31-44.58c-.03-4.29-3.52-7.75-7.8-7.75h0Z"/>
          </g>
          <g class="cls-9">
            <polygon class="cls-8" points="154.88 138.83 203.11 138.49 203.07 132.61 150 132.98 150.31 177.56 155.15 177.52 154.88 138.83"/>
          </g>
          <g>
            <path class="cls-5" d="M194.89,181.15c-1.03,0-2.01-.4-2.74-1.12-.74-.73-1.16-1.72-1.16-2.75l-.31-44.58c-.01-2.15,1.72-3.91,3.87-3.93,0,0,63.7-.45,63.71-.45,2.14,0,3.89,1.73,3.9,3.87l.31,44.58c0,1.03-.4,2.03-1.12,2.77-.73.74-1.72,1.16-2.75,1.16,0,0-63.7.45-63.71.45Z"/>
            <path class="cls-6" d="M258.26,132.22l.31,44.58-63.68.45-.31-44.58,63.68-.45h0ZM258.26,124.42h-.06l-63.68.45c-4.31.03-7.78,3.55-7.75,7.86l.31,44.58c.01,2.07.85,4.05,2.32,5.5,1.46,1.44,3.43,2.25,5.48,2.25h.05l63.68-.45c2.07-.01,4.05-.85,5.5-2.32,1.45-1.47,2.26-3.46,2.25-5.53l-.31-44.58c-.03-4.29-3.52-7.75-7.8-7.75h0Z"/>
          </g>
          <g class="cls-10">
            <path class="cls-6" d="M258.57,176.8l-.31-44.58-31.11.22.04,5.76c.09,12.7-10.13,28.92-22.83,29.01l-9.58.29-44.47.31-.2-34.82h-.11s.31,44.58.31,44.58l44.58-.31h0s63.68-.45,63.68-.45Z"/>
          </g>
        </g>
        <g>
          <path class="cls-8" d="M134.26,196.52c-3.47,0-6.31-2.82-6.34-6.3v-.6c-.03-3.5,2.8-6.36,6.29-6.39l134.33-.94c3.52,0,6.36,2.82,6.38,6.3v.6c.02,1.69-.63,3.29-1.82,4.5-1.19,1.21-2.78,1.88-4.47,1.89,0,0-134.37.94-134.38.94Z"/>
          <path class="cls-6" d="M268.59,185.22c1.87,0,3.4,1.51,3.41,3.39v.6c.02,1.89-1.5,3.43-3.39,3.44l-134.33.94h-.02c-1.87,0-3.4-1.51-3.41-3.39v-.6c-.02-1.89,1.5-3.42,3.39-3.44l134.33-.94h.02ZM268.59,179.37h-.07l-134.33.94c-5.11.04-9.24,4.22-9.2,9.33v.6c.04,5.07,4.2,9.2,9.27,9.2h.07l134.33-.94c2.47-.02,4.8-1,6.53-2.76,1.74-1.76,2.69-4.1,2.67-6.57v-.6c-.04-5.07-4.2-9.2-9.27-9.2h0Z"/>
        </g>
        <g class="cls-10">
          <path class="cls-6" d="M272.01,188.61c-.01-1.89-1.55-3.4-3.44-3.39l-22.42.16c1.4.42,2.43,1.7,2.44,3.23v.6c.02,1.89-1.5,3.42-3.39,3.44l-111.92.78c.32.09.65.16.99.16l134.33-.94c1.89-.01,3.4-1.55,3.39-3.44v-.6Z"/>
        </g>
      </g>
    </g>
    <path class="cls-6" d="M204.23,180.77c-1.08,0-1.95-.87-1.95-1.95v-10.45c0-1.08.87-1.95,1.95-1.95s1.95.87,1.95,1.95v10.45c0,1.08-.87,1.95-1.95,1.95Z"/>
    <path class="cls-6" d="M211.82,181.46c-1.08,0-1.95-.87-1.95-1.95v-5.59c0-1.08.87-1.95,1.95-1.95s1.95.87,1.95,1.95v5.59c0,1.08-.87,1.95-1.95,1.95Z"/>
  </g>
  <path class="cls-6" d="M260.58,26.43c-1.08,0-1.95-.87-1.95-1.95v-13.64c0-1.08.87-1.95,1.95-1.95s1.95.87,1.95,1.95v13.64c0,1.08-.87,1.95-1.95,1.95Z"/>
  <path class="cls-6" d="M260.58,37.48c-1.08,0-1.95-.87-1.95-1.95v-3.74c0-1.08.87-1.95,1.95-1.95s1.95.87,1.95,1.95v3.74c0,1.08-.87,1.95-1.95,1.95Z"/>
  <path class="cls-6" d="M253.44,19.79c-1.08,0-1.95-.87-1.95-1.95V7.74c0-1.08.87-1.95,1.95-1.95s1.95.87,1.95,1.95v10.1c0,1.08-.87,1.95-1.95,1.95Z"/>
</svg>