<?xml version="1.0" encoding="UTF-8"?>
<svg id="Layer_2" data-name="Layer 2" xmlns="http://www.w3.org/2000/svg" xmlns:xlink="http://www.w3.org/1999/xlink" viewBox="0 0 400 300">
  <defs>
    <style>
      .cls-1 {
        fill: #edbb99;
      }

      .cls-1, .cls-2, .cls-3, .cls-4, .cls-5, .cls-6, .cls-7, .cls-8, .cls-9, .cls-10, .cls-11, .cls-12, .cls-13, .cls-14 {
        stroke-width: 0px;
      }

      .cls-2 {
        fill: #d7ccc8;
      }

      .cls-15 {
        clip-path: url(#clippath);
      }

      .cls-3 {
        fill: none;
      }

      .cls-4 {
        fill: #f6ddcc;
      }

      .cls-5 {
        fill: #f9e79f;
      }

      .cls-16 {
        clip-path: url(#clippath-1);
      }

      .cls-6 {
        fill: #90caf9;
      }

      .cls-7 {
        fill: #b2babb;
      }

      .cls-8 {
        fill: #99a3a4;
      }

      .cls-9 {
        fill: #ffe0b2;
      }

      .cls-10 {
        fill: #ccd1d1;
      }

      .cls-17 {
        opacity: .15;
      }

      .cls-11 {
        fill: #1a5276;
      }

      .cls-18 {
        opacity: .3;
      }

      .cls-19 {
        opacity: .35;
      }

      .cls-20 {
        opacity: .5;
      }

      .cls-12 {
        fill: #707b7c;
      }

      .cls-13 {
        fill: #fff;
      }

      .cls-14 {
        fill: #a1887f;
      }
    </style>
    <clipPath id="clippath">
      <rect class="cls-3" x="40.57" y="21.9" width="324.19" height="256.46"/>
    </clipPath>
    <clipPath id="clippath-1">
      <rect class="cls-3" x="40.57" y="16.18" width="324.19" height="256.46"/>
    </clipPath>
  </defs>
  <g class="cls-20">
    <g>
      <rect class="cls-13" x="38.02" y="13.64" width="329.28" height="261.55" rx="2.54" ry="2.54"/>
      <path class="cls-11" d="M364.76,16.18v256.46H40.57V16.18h324.19ZM364.76,11.1H40.57c-2.81,0-5.08,2.28-5.08,5.08v256.46c0,2.81,2.28,5.08,5.08,5.08h324.19c2.81,0,5.08-2.28,5.08-5.08V16.18c0-2.81-2.28-5.08-5.08-5.08h0Z"/>
    </g>
    <g class="cls-15">
      <g>
        <g>
          <rect class="cls-8" x="49.38" y="111.46" width="7.96" height="23.28" rx="1.91" ry="1.91"/>
          <path class="cls-11" d="M55.43,113.37v19.47h-4.15v-19.47h4.15ZM55.43,109.56h-4.15c-2.11,0-3.81,1.71-3.81,3.81v19.47c0,2.11,1.71,3.81,3.81,3.81h4.15c2.11,0,3.81-1.71,3.81-3.81v-19.47c0-2.11-1.71-3.81-3.81-3.81h0Z"/>
        </g>
        <g>
          <rect class="cls-8" x="62.14" y="117.53" width="6.05" height="17.22" rx="1.91" ry="1.91"/>
          <path class="cls-11" d="M66.28,119.43v13.4h-2.23v-13.4h2.23ZM66.28,115.62h-2.23c-2.11,0-3.81,1.71-3.81,3.81v13.4c0,2.11,1.71,3.81,3.81,3.81h2.23c2.11,0,3.81-1.71,3.81-3.81v-13.4c0-2.11-1.71-3.81-3.81-3.81h0Z"/>
        </g>
        <g>
          <g>
            <rect class="cls-9" x="37.73" y="128.22" width="70.67" height="143.92" rx="1.91" ry="1.91"/>
            <path class="cls-11" d="M106.49,130.12v140.1H39.63v-140.1h66.86ZM106.49,126.31H39.63c-2.11,0-3.81,1.71-3.81,3.81v140.1c0,2.11,1.71,3.81,3.81,3.81h66.86c2.11,0,3.81-1.71,3.81-3.81v-140.1c0-2.11-1.71-3.81-3.81-3.81h0Z"/>
          </g>
          <g class="cls-19">
            <rect class="cls-11" x="39.63" y="135.84" width="66.86" height="7.5"/>
          </g>
          <g>
            <rect class="cls-10" x="37.73" y="128.22" width="70.67" height="11.31" rx="1.91" ry="1.91"/>
            <path class="cls-11" d="M106.49,130.12v7.5H39.63v-7.5h66.86ZM106.49,126.31H39.63c-2.11,0-3.81,1.71-3.81,3.81v7.5c0,2.11,1.71,3.81,3.81,3.81h66.86c2.11,0,3.81-1.71,3.81-3.81v-7.5c0-2.11-1.71-3.81-3.81-3.81h0Z"/>
          </g>
          <g class="cls-19">
            <polygon class="cls-11" points="39.63 130.12 39.63 134.57 102.05 134.57 102.05 270.23 106.49 270.23 106.49 130.12 39.63 130.12"/>
          </g>
          <g>
            <rect class="cls-13" x="49.19" y="146.89" width="9.99" height="9.99" rx="1.91" ry="1.91"/>
            <path class="cls-11" d="M57.28,148.79v6.18h-6.18v-6.18h6.18ZM57.28,144.98h-6.18c-2.11,0-3.81,1.71-3.81,3.81v6.18c0,2.11,1.71,3.81,3.81,3.81h6.18c2.11,0,3.81-1.71,3.81-3.81v-6.18c0-2.11-1.71-3.81-3.81-3.81h0Z"/>
          </g>
          <g>
            <rect class="cls-13" x="68.07" y="146.89" width="9.99" height="9.99" rx="1.91" ry="1.91"/>
            <path class="cls-11" d="M76.15,148.79v6.18h-6.18v-6.18h6.18ZM76.15,144.98h-6.18c-2.11,0-3.81,1.71-3.81,3.81v6.18c0,2.11,1.71,3.81,3.81,3.81h6.18c2.11,0,3.81-1.71,3.81-3.81v-6.18c0-2.11-1.71-3.81-3.81-3.81h0Z"/>
          </g>
          <g>
            <rect class="cls-13" x="86.94" y="146.89" width="9.99" height="9.99" rx="1.91" ry="1.91"/>
            <path class="cls-11" d="M95.03,148.79v6.18h-6.18v-6.18h6.18ZM95.03,144.98h-6.18c-2.11,0-3.81,1.71-3.81,3.81v6.18c0,2.11,1.71,3.81,3.81,3.81h6.18c2.11,0,3.81-1.71,3.81-3.81v-6.18c0-2.11-1.71-3.81-3.81-3.81h0Z"/>
          </g>
          <g>
            <g class="cls-19">
              <rect class="cls-11" x="51.1" y="148.79" width="6.18" height="2.45"/>
            </g>
            <g class="cls-19">
              <rect class="cls-11" x="69.97" y="148.79" width="6.18" height="2.45"/>
            </g>
            <g class="cls-19">
              <rect class="cls-11" x="88.85" y="148.79" width="6.18" height="2.45"/>
            </g>
          </g>
          <g>
            <g>
              <rect class="cls-13" x="49.19" y="180.08" width="9.99" height="9.99" rx="1.91" ry="1.91"/>
              <path class="cls-11" d="M57.28,181.98v6.18h-6.18v-6.18h6.18ZM57.28,178.17h-6.18c-2.11,0-3.81,1.71-3.81,3.81v6.18c0,2.11,1.71,3.81,3.81,3.81h6.18c2.11,0,3.81-1.71,3.81-3.81v-6.18c0-2.11-1.71-3.81-3.81-3.81h0Z"/>
            </g>
            <g>
              <rect class="cls-13" x="68.07" y="180.08" width="9.99" height="9.99" rx="1.91" ry="1.91"/>
              <path class="cls-11" d="M76.15,181.98v6.18h-6.18v-6.18h6.18ZM76.15,178.17h-6.18c-2.11,0-3.81,1.71-3.81,3.81v6.18c0,2.11,1.71,3.81,3.81,3.81h6.18c2.11,0,3.81-1.71,3.81-3.81v-6.18c0-2.11-1.71-3.81-3.81-3.81h0Z"/>
            </g>
            <g>
              <rect class="cls-13" x="86.94" y="180.08" width="9.99" height="9.99" rx="1.91" ry="1.91"/>
              <path class="cls-11" d="M95.03,181.98v6.18h-6.18v-6.18h6.18ZM95.03,178.17h-6.18c-2.11,0-3.81,1.71-3.81,3.81v6.18c0,2.11,1.71,3.81,3.81,3.81h6.18c2.11,0,3.81-1.71,3.81-3.81v-6.18c0-2.11-1.71-3.81-3.81-3.81h0Z"/>
            </g>
          </g>
          <g>
            <g>
              <rect class="cls-13" x="49.19" y="196.67" width="9.99" height="9.99" rx="1.91" ry="1.91"/>
              <path class="cls-11" d="M57.28,198.58v6.18h-6.18v-6.18h6.18ZM57.28,194.77h-6.18c-2.11,0-3.81,1.71-3.81,3.81v6.18c0,2.11,1.71,3.81,3.81,3.81h6.18c2.11,0,3.81-1.71,3.81-3.81v-6.18c0-2.11-1.71-3.81-3.81-3.81h0Z"/>
            </g>
            <g>
              <rect class="cls-13" x="68.07" y="196.67" width="9.99" height="9.99" rx="1.91" ry="1.91"/>
              <path class="cls-11" d="M76.15,198.58v6.18h-6.18v-6.18h6.18ZM76.15,194.77h-6.18c-2.11,0-3.81,1.71-3.81,3.81v6.18c0,2.11,1.71,3.81,3.81,3.81h6.18c2.11,0,3.81-1.71,3.81-3.81v-6.18c0-2.11-1.71-3.81-3.81-3.81h0Z"/>
            </g>
            <g>
              <rect class="cls-13" x="86.94" y="196.67" width="9.99" height="9.99" rx="1.91" ry="1.91"/>
              <path class="cls-11" d="M95.03,198.58v6.18h-6.18v-6.18h6.18ZM95.03,194.77h-6.18c-2.11,0-3.81,1.71-3.81,3.81v6.18c0,2.11,1.71,3.81,3.81,3.81h6.18c2.11,0,3.81-1.71,3.81-3.81v-6.18c0-2.11-1.71-3.81-3.81-3.81h0Z"/>
            </g>
          </g>
          <g>
            <g>
              <rect class="cls-13" x="49.19" y="213.27" width="9.99" height="9.99" rx="1.91" ry="1.91"/>
              <path class="cls-11" d="M57.28,215.18v6.18h-6.18v-6.18h6.18ZM57.28,211.36h-6.18c-2.11,0-3.81,1.71-3.81,3.81v6.18c0,2.11,1.71,3.81,3.81,3.81h6.18c2.11,0,3.81-1.71,3.81-3.81v-6.18c0-2.11-1.71-3.81-3.81-3.81h0Z"/>
            </g>
            <g>
              <rect class="cls-13" x="68.07" y="213.27" width="9.99" height="9.99" rx="1.91" ry="1.91"/>
              <path class="cls-11" d="M76.15,215.18v6.18h-6.18v-6.18h6.18ZM76.15,211.36h-6.18c-2.11,0-3.81,1.71-3.81,3.81v6.18c0,2.11,1.71,3.81,3.81,3.81h6.18c2.11,0,3.81-1.71,3.81-3.81v-6.18c0-2.11-1.71-3.81-3.81-3.81h0Z"/>
            </g>
            <g>
              <rect class="cls-13" x="86.94" y="213.27" width="9.99" height="9.99" rx="1.91" ry="1.91"/>
              <path class="cls-11" d="M95.03,215.18v6.18h-6.18v-6.18h6.18ZM95.03,211.36h-6.18c-2.11,0-3.81,1.71-3.81,3.81v6.18c0,2.11,1.71,3.81,3.81,3.81h6.18c2.11,0,3.81-1.71,3.81-3.81v-6.18c0-2.11-1.71-3.81-3.81-3.81h0Z"/>
            </g>
          </g>
          <g>
            <g>
              <rect class="cls-13" x="49.19" y="229.86" width="9.99" height="9.99" rx="1.91" ry="1.91"/>
              <path class="cls-11" d="M57.28,231.77v6.18h-6.18v-6.18h6.18ZM57.28,227.96h-6.18c-2.11,0-3.81,1.71-3.81,3.81v6.18c0,2.11,1.71,3.81,3.81,3.81h6.18c2.11,0,3.81-1.71,3.81-3.81v-6.18c0-2.11-1.71-3.81-3.81-3.81h0Z"/>
            </g>
            <g>
              <rect class="cls-13" x="68.07" y="229.86" width="9.99" height="9.99" rx="1.91" ry="1.91"/>
              <path class="cls-11" d="M76.15,231.77v6.18h-6.18v-6.18h6.18ZM76.15,227.96h-6.18c-2.11,0-3.81,1.71-3.81,3.81v6.18c0,2.11,1.71,3.81,3.81,3.81h6.18c2.11,0,3.81-1.71,3.81-3.81v-6.18c0-2.11-1.71-3.81-3.81-3.81h0Z"/>
            </g>
            <g>
              <rect class="cls-13" x="86.94" y="229.86" width="9.99" height="9.99" rx="1.91" ry="1.91"/>
              <path class="cls-11" d="M95.03,231.77v6.18h-6.18v-6.18h6.18ZM95.03,227.96h-6.18c-2.11,0-3.81,1.71-3.81,3.81v6.18c0,2.11,1.71,3.81,3.81,3.81h6.18c2.11,0,3.81-1.71,3.81-3.81v-6.18c0-2.11-1.71-3.81-3.81-3.81h0Z"/>
            </g>
          </g>
          <g>
            <g>
              <rect class="cls-13" x="49.19" y="246.46" width="9.99" height="9.99" rx="1.91" ry="1.91"/>
              <path class="cls-11" d="M57.28,248.37v6.18h-6.18v-6.18h6.18ZM57.28,244.55h-6.18c-2.11,0-3.81,1.71-3.81,3.81v6.18c0,2.11,1.71,3.81,3.81,3.81h6.18c2.11,0,3.81-1.71,3.81-3.81v-6.18c0-2.11-1.71-3.81-3.81-3.81h0Z"/>
            </g>
            <g>
              <rect class="cls-13" x="68.07" y="246.46" width="9.99" height="9.99" rx="1.91" ry="1.91"/>
              <path class="cls-11" d="M76.15,248.37v6.18h-6.18v-6.18h6.18ZM76.15,244.55h-6.18c-2.11,0-3.81,1.71-3.81,3.81v6.18c0,2.11,1.71,3.81,3.81,3.81h6.18c2.11,0,3.81-1.71,3.81-3.81v-6.18c0-2.11-1.71-3.81-3.81-3.81h0Z"/>
            </g>
            <g>
              <rect class="cls-13" x="86.94" y="246.46" width="9.99" height="9.99" rx="1.91" ry="1.91"/>
              <path class="cls-11" d="M95.03,248.37v6.18h-6.18v-6.18h6.18ZM95.03,244.55h-6.18c-2.11,0-3.81,1.71-3.81,3.81v6.18c0,2.11,1.71,3.81,3.81,3.81h6.18c2.11,0,3.81-1.71,3.81-3.81v-6.18c0-2.11-1.71-3.81-3.81-3.81h0Z"/>
            </g>
          </g>
          <g>
            <g>
              <rect class="cls-13" x="49.19" y="246.46" width="9.99" height="9.99" rx="1.91" ry="1.91"/>
              <path class="cls-11" d="M57.28,248.37v6.18h-6.18v-6.18h6.18ZM57.28,244.55h-6.18c-2.11,0-3.81,1.71-3.81,3.81v6.18c0,2.11,1.71,3.81,3.81,3.81h6.18c2.11,0,3.81-1.71,3.81-3.81v-6.18c0-2.11-1.71-3.81-3.81-3.81h0Z"/>
            </g>
            <g>
              <rect class="cls-13" x="68.07" y="246.46" width="9.99" height="9.99" rx="1.91" ry="1.91"/>
              <path class="cls-11" d="M76.15,248.37v6.18h-6.18v-6.18h6.18ZM76.15,244.55h-6.18c-2.11,0-3.81,1.71-3.81,3.81v6.18c0,2.11,1.71,3.81,3.81,3.81h6.18c2.11,0,3.81-1.71,3.81-3.81v-6.18c0-2.11-1.71-3.81-3.81-3.81h0Z"/>
            </g>
            <g>
              <rect class="cls-13" x="86.94" y="246.46" width="9.99" height="9.99" rx="1.91" ry="1.91"/>
              <path class="cls-11" d="M95.03,248.37v6.18h-6.18v-6.18h6.18ZM95.03,244.55h-6.18c-2.11,0-3.81,1.71-3.81,3.81v6.18c0,2.11,1.71,3.81,3.81,3.81h6.18c2.11,0,3.81-1.71,3.81-3.81v-6.18c0-2.11-1.71-3.81-3.81-3.81h0Z"/>
            </g>
          </g>
          <g>
            <g>
              <rect class="cls-13" x="49.19" y="163.48" width="9.99" height="9.99" rx="1.91" ry="1.91"/>
              <path class="cls-11" d="M57.28,165.39v6.18h-6.18v-6.18h6.18ZM57.28,161.58h-6.18c-2.11,0-3.81,1.71-3.81,3.81v6.18c0,2.11,1.71,3.81,3.81,3.81h6.18c2.11,0,3.81-1.71,3.81-3.81v-6.18c0-2.11-1.71-3.81-3.81-3.81h0Z"/>
            </g>
            <g>
              <rect class="cls-13" x="68.07" y="163.48" width="9.99" height="9.99" rx="1.91" ry="1.91"/>
              <path class="cls-11" d="M76.15,165.39v6.18h-6.18v-6.18h6.18ZM76.15,161.58h-6.18c-2.11,0-3.81,1.71-3.81,3.81v6.18c0,2.11,1.71,3.81,3.81,3.81h6.18c2.11,0,3.81-1.71,3.81-3.81v-6.18c0-2.11-1.71-3.81-3.81-3.81h0Z"/>
            </g>
            <g>
              <rect class="cls-13" x="86.94" y="163.48" width="9.99" height="9.99" rx="1.91" ry="1.91"/>
              <path class="cls-11" d="M95.03,165.39v6.18h-6.18v-6.18h6.18ZM95.03,161.58h-6.18c-2.11,0-3.81,1.71-3.81,3.81v6.18c0,2.11,1.71,3.81,3.81,3.81h6.18c2.11,0,3.81-1.71,3.81-3.81v-6.18c0-2.11-1.71-3.81-3.81-3.81h0Z"/>
            </g>
          </g>
          <g>
            <g class="cls-19">
              <rect class="cls-11" x="51.1" y="165.39" width="6.18" height="2.45"/>
            </g>
            <g class="cls-19">
              <rect class="cls-11" x="69.97" y="165.39" width="6.18" height="2.45"/>
            </g>
            <g class="cls-19">
              <rect class="cls-11" x="88.85" y="165.39" width="6.18" height="2.45"/>
            </g>
          </g>
          <g>
            <g class="cls-19">
              <rect class="cls-11" x="51.1" y="181.98" width="6.18" height="2.45"/>
            </g>
            <g class="cls-19">
              <rect class="cls-11" x="69.97" y="181.98" width="6.18" height="2.45"/>
            </g>
            <g class="cls-19">
              <rect class="cls-11" x="88.85" y="181.98" width="6.18" height="2.45"/>
            </g>
          </g>
          <g>
            <g class="cls-19">
              <rect class="cls-11" x="51.1" y="198.58" width="6.18" height="2.45"/>
            </g>
            <g class="cls-19">
              <rect class="cls-11" x="69.97" y="198.58" width="6.18" height="2.45"/>
            </g>
            <g class="cls-19">
              <rect class="cls-11" x="88.85" y="198.58" width="6.18" height="2.45"/>
            </g>
          </g>
          <g>
            <g class="cls-19">
              <rect class="cls-11" x="51.1" y="215.18" width="6.18" height="2.45"/>
            </g>
            <g class="cls-19">
              <rect class="cls-11" x="69.97" y="215.18" width="6.18" height="2.45"/>
            </g>
            <g class="cls-19">
              <rect class="cls-11" x="88.85" y="215.18" width="6.18" height="2.45"/>
            </g>
          </g>
          <g>
            <g class="cls-19">
              <rect class="cls-11" x="51.1" y="231.77" width="6.18" height="2.45"/>
            </g>
            <g class="cls-19">
              <rect class="cls-11" x="69.97" y="231.77" width="6.18" height="2.45"/>
            </g>
            <g class="cls-19">
              <rect class="cls-11" x="88.85" y="231.77" width="6.18" height="2.45"/>
            </g>
          </g>
          <g>
            <g class="cls-19">
              <rect class="cls-11" x="51.1" y="248.37" width="6.18" height="2.45"/>
            </g>
            <g class="cls-19">
              <rect class="cls-11" x="69.97" y="248.37" width="6.18" height="2.45"/>
            </g>
            <g class="cls-19">
              <rect class="cls-11" x="88.85" y="248.37" width="6.18" height="2.45"/>
            </g>
          </g>
        </g>
      </g>
      <g>
        <g>
          <rect class="cls-5" x="69.61" y="193.19" width="75.35" height="101.15" rx="1.91" ry="1.91"/>
          <path class="cls-11" d="M143.06,195.1v97.34h-71.54v-97.34h71.54ZM143.06,191.28h-71.54c-2.11,0-3.81,1.71-3.81,3.81v97.34c0,2.11,1.71,3.81,3.81,3.81h71.54c2.11,0,3.81-1.71,3.81-3.81v-97.34c0-2.11-1.71-3.81-3.81-3.81h0Z"/>
        </g>
        <g class="cls-19">
          <polygon class="cls-11" points="71.52 195.1 71.52 203.99 139.24 203.99 139.24 292.43 143.06 292.43 143.06 195.1 71.52 195.1"/>
        </g>
        <g>
          <path class="cls-14" d="M62.74,190h85.65c2.61,0,4.72,2.12,4.72,4.72v.75c0,2.61-2.12,4.72-4.72,4.72H62.74c-2.61,0-4.72-2.12-4.72-4.72v-.75c0-2.61,2.12-4.72,4.72-4.72Z"/>
          <path class="cls-11" d="M148.38,191.9c1.55,0,2.81,1.26,2.81,2.81v.75c0,1.55-1.26,2.81-2.81,2.81H62.74c-1.55,0-2.81-1.26-2.81-2.81v-.75c0-1.55,1.26-2.81,2.81-2.81h85.65ZM148.38,188.09H62.74c-3.65,0-6.63,2.97-6.63,6.63v.75c0,3.65,2.97,6.63,6.63,6.63h85.65c3.65,0,6.63-2.97,6.63-6.63v-.75c0-3.65-2.97-6.63-6.63-6.63h0Z"/>
        </g>
        <g class="cls-19">
          <path class="cls-11" d="M148.38,191.9H62.74c-.98,0-1.85.51-2.35,1.27h79.73c1.55,0,2.81,1.26,2.81,2.81v.75c0,.57-.17,1.1-.46,1.54h5.91c1.55,0,2.81-1.26,2.81-2.81v-.75c0-1.55-1.26-2.81-2.81-2.81Z"/>
        </g>
        <g class="cls-19">
          <rect class="cls-11" x="77.77" y="205.95" width="9.81" height="9.19" rx="2.54" ry="2.54"/>
          <rect class="cls-11" x="95.03" y="205.95" width="9.81" height="9.19" rx="2.54" ry="2.54"/>
          <rect class="cls-11" x="112.28" y="205.95" width="9.81" height="9.19" rx="2.54" ry="2.54"/>
          <rect class="cls-11" x="129.53" y="205.95" width="9.81" height="9.19" rx="2.54" ry="2.54"/>
          <rect class="cls-11" x="77.77" y="219.03" width="9.81" height="9.19" rx="2.54" ry="2.54"/>
          <rect class="cls-11" x="95.03" y="219.03" width="9.81" height="9.19" rx="2.54" ry="2.54"/>
          <rect class="cls-11" x="112.28" y="219.03" width="9.81" height="9.19" rx="2.54" ry="2.54"/>
          <rect class="cls-11" x="129.53" y="219.03" width="9.81" height="9.19" rx="2.54" ry="2.54"/>
          <rect class="cls-11" x="77.77" y="232.12" width="9.81" height="9.19" rx="2.54" ry="2.54"/>
          <rect class="cls-11" x="95.03" y="232.12" width="9.81" height="9.19" rx="2.54" ry="2.54"/>
          <rect class="cls-11" x="112.28" y="232.12" width="9.81" height="9.19" rx="2.54" ry="2.54"/>
          <rect class="cls-11" x="129.53" y="232.12" width="9.81" height="9.19" rx="2.54" ry="2.54"/>
          <rect class="cls-11" x="77.77" y="245.2" width="9.81" height="9.19" rx="2.54" ry="2.54"/>
          <rect class="cls-11" x="95.03" y="245.2" width="9.81" height="9.19" rx="2.54" ry="2.54"/>
          <rect class="cls-11" x="112.28" y="245.2" width="9.81" height="9.19" rx="2.54" ry="2.54"/>
          <rect class="cls-11" x="129.53" y="245.2" width="9.81" height="9.19" rx="2.54" ry="2.54"/>
          <rect class="cls-11" x="77.77" y="258.29" width="9.81" height="9.19" rx="2.54" ry="2.54"/>
          <rect class="cls-11" x="95.03" y="258.29" width="9.81" height="9.19" rx="2.54" ry="2.54"/>
          <rect class="cls-11" x="112.28" y="258.29" width="9.81" height="9.19" rx="2.54" ry="2.54"/>
          <rect class="cls-11" x="129.53" y="258.29" width="9.81" height="9.19" rx="2.54" ry="2.54"/>
          <rect class="cls-11" x="77.77" y="271.37" width="9.81" height="9.19" rx="2.54" ry="2.54"/>
          <rect class="cls-11" x="95.03" y="271.37" width="9.81" height="9.19" rx="2.54" ry="2.54"/>
          <rect class="cls-11" x="112.28" y="271.37" width="9.81" height="9.19" rx="2.54" ry="2.54"/>
          <rect class="cls-11" x="129.53" y="271.37" width="9.81" height="9.19" rx="2.54" ry="2.54"/>
          <rect class="cls-11" x="77.77" y="284.46" width="9.81" height="9.19" rx="2.54" ry="2.54"/>
          <rect class="cls-11" x="95.03" y="284.46" width="9.81" height="9.19" rx="2.54" ry="2.54"/>
          <rect class="cls-11" x="112.28" y="284.46" width="9.81" height="9.19" rx="2.54" ry="2.54"/>
          <rect class="cls-11" x="129.53" y="284.46" width="9.81" height="9.19" rx="2.54" ry="2.54"/>
        </g>
        <g>
          <g>
            <g>
              <rect class="cls-13" x="77.77" y="205.95" width="7.27" height="6.65" rx="1.27" ry="1.27"/>
              <path class="cls-11" d="M83.77,207.22v4.1h-4.73v-4.1h4.73ZM83.77,204.68h-4.73c-1.4,0-2.54,1.14-2.54,2.54v4.1c0,1.4,1.14,2.54,2.54,2.54h4.73c1.4,0,2.54-1.14,2.54-2.54v-4.1c0-1.4-1.14-2.54-2.54-2.54h0Z"/>
            </g>
            <g>
              <rect class="cls-13" x="95.03" y="205.95" width="7.27" height="6.65" rx="1.27" ry="1.27"/>
              <path class="cls-11" d="M101.02,207.22v4.1h-4.73v-4.1h4.73ZM101.02,204.68h-4.73c-1.4,0-2.54,1.14-2.54,2.54v4.1c0,1.4,1.14,2.54,2.54,2.54h4.73c1.4,0,2.54-1.14,2.54-2.54v-4.1c0-1.4-1.14-2.54-2.54-2.54h0Z"/>
            </g>
            <g>
              <rect class="cls-13" x="112.28" y="205.95" width="7.27" height="6.65" rx="1.27" ry="1.27"/>
              <path class="cls-11" d="M118.28,207.22v4.1h-4.73v-4.1h4.73ZM118.28,204.68h-4.73c-1.4,0-2.54,1.14-2.54,2.54v4.1c0,1.4,1.14,2.54,2.54,2.54h4.73c1.4,0,2.54-1.14,2.54-2.54v-4.1c0-1.4-1.14-2.54-2.54-2.54h0Z"/>
            </g>
            <g>
              <rect class="cls-13" x="129.53" y="205.95" width="7.27" height="6.65" rx="1.27" ry="1.27"/>
              <path class="cls-11" d="M135.53,207.22v4.1h-4.73v-4.1h4.73ZM135.53,204.68h-4.73c-1.4,0-2.54,1.14-2.54,2.54v4.1c0,1.4,1.14,2.54,2.54,2.54h4.73c1.4,0,2.54-1.14,2.54-2.54v-4.1c0-1.4-1.14-2.54-2.54-2.54h0Z"/>
            </g>
          </g>
          <g>
            <g>
              <rect class="cls-13" x="77.77" y="219.03" width="7.27" height="6.65" rx="1.27" ry="1.27"/>
              <path class="cls-11" d="M83.77,220.3v4.1h-4.73v-4.1h4.73ZM83.77,217.76h-4.73c-1.4,0-2.54,1.14-2.54,2.54v4.1c0,1.4,1.14,2.54,2.54,2.54h4.73c1.4,0,2.54-1.14,2.54-2.54v-4.1c0-1.4-1.14-2.54-2.54-2.54h0Z"/>
            </g>
            <g>
              <rect class="cls-13" x="95.03" y="219.03" width="7.27" height="6.65" rx="1.27" ry="1.27"/>
              <path class="cls-11" d="M101.02,220.3v4.1h-4.73v-4.1h4.73ZM101.02,217.76h-4.73c-1.4,0-2.54,1.14-2.54,2.54v4.1c0,1.4,1.14,2.54,2.54,2.54h4.73c1.4,0,2.54-1.14,2.54-2.54v-4.1c0-1.4-1.14-2.54-2.54-2.54h0Z"/>
            </g>
            <g>
              <rect class="cls-13" x="112.28" y="219.03" width="7.27" height="6.65" rx="1.27" ry="1.27"/>
              <path class="cls-11" d="M118.28,220.3v4.1h-4.73v-4.1h4.73ZM118.28,217.76h-4.73c-1.4,0-2.54,1.14-2.54,2.54v4.1c0,1.4,1.14,2.54,2.54,2.54h4.73c1.4,0,2.54-1.14,2.54-2.54v-4.1c0-1.4-1.14-2.54-2.54-2.54h0Z"/>
            </g>
            <g>
              <rect class="cls-13" x="129.53" y="219.03" width="7.27" height="6.65" rx="1.27" ry="1.27"/>
              <path class="cls-11" d="M135.53,220.3v4.1h-4.73v-4.1h4.73ZM135.53,217.76h-4.73c-1.4,0-2.54,1.14-2.54,2.54v4.1c0,1.4,1.14,2.54,2.54,2.54h4.73c1.4,0,2.54-1.14,2.54-2.54v-4.1c0-1.4-1.14-2.54-2.54-2.54h0Z"/>
            </g>
          </g>
          <g>
            <g>
              <rect class="cls-13" x="77.77" y="232.12" width="7.27" height="6.65" rx="1.27" ry="1.27"/>
              <path class="cls-11" d="M83.77,233.39v4.1h-4.73v-4.1h4.73ZM83.77,230.85h-4.73c-1.4,0-2.54,1.14-2.54,2.54v4.1c0,1.4,1.14,2.54,2.54,2.54h4.73c1.4,0,2.54-1.14,2.54-2.54v-4.1c0-1.4-1.14-2.54-2.54-2.54h0Z"/>
            </g>
            <g>
              <rect class="cls-13" x="95.03" y="232.12" width="7.27" height="6.65" rx="1.27" ry="1.27"/>
              <path class="cls-11" d="M101.02,233.39v4.1h-4.73v-4.1h4.73ZM101.02,230.85h-4.73c-1.4,0-2.54,1.14-2.54,2.54v4.1c0,1.4,1.14,2.54,2.54,2.54h4.73c1.4,0,2.54-1.14,2.54-2.54v-4.1c0-1.4-1.14-2.54-2.54-2.54h0Z"/>
            </g>
            <g>
              <rect class="cls-13" x="112.28" y="232.12" width="7.27" height="6.65" rx="1.27" ry="1.27"/>
              <path class="cls-11" d="M118.28,233.39v4.1h-4.73v-4.1h4.73ZM118.28,230.85h-4.73c-1.4,0-2.54,1.14-2.54,2.54v4.1c0,1.4,1.14,2.54,2.54,2.54h4.73c1.4,0,2.54-1.14,2.54-2.54v-4.1c0-1.4-1.14-2.54-2.54-2.54h0Z"/>
            </g>
            <g>
              <rect class="cls-13" x="129.53" y="232.12" width="7.27" height="6.65" rx="1.27" ry="1.27"/>
              <path class="cls-11" d="M135.53,233.39v4.1h-4.73v-4.1h4.73ZM135.53,230.85h-4.73c-1.4,0-2.54,1.14-2.54,2.54v4.1c0,1.4,1.14,2.54,2.54,2.54h4.73c1.4,0,2.54-1.14,2.54-2.54v-4.1c0-1.4-1.14-2.54-2.54-2.54h0Z"/>
            </g>
          </g>
          <g>
            <g>
              <rect class="cls-13" x="77.77" y="245.2" width="7.27" height="6.65" rx="1.27" ry="1.27"/>
              <path class="cls-11" d="M83.77,246.47v4.1h-4.73v-4.1h4.73ZM83.77,243.93h-4.73c-1.4,0-2.54,1.14-2.54,2.54v4.1c0,1.4,1.14,2.54,2.54,2.54h4.73c1.4,0,2.54-1.14,2.54-2.54v-4.1c0-1.4-1.14-2.54-2.54-2.54h0Z"/>
            </g>
            <g>
              <rect class="cls-13" x="95.03" y="245.2" width="7.27" height="6.65" rx="1.27" ry="1.27"/>
              <path class="cls-11" d="M101.02,246.47v4.1h-4.73v-4.1h4.73ZM101.02,243.93h-4.73c-1.4,0-2.54,1.14-2.54,2.54v4.1c0,1.4,1.14,2.54,2.54,2.54h4.73c1.4,0,2.54-1.14,2.54-2.54v-4.1c0-1.4-1.14-2.54-2.54-2.54h0Z"/>
            </g>
            <g>
              <rect class="cls-13" x="112.28" y="245.2" width="7.27" height="6.65" rx="1.27" ry="1.27"/>
              <path class="cls-11" d="M118.28,246.47v4.1h-4.73v-4.1h4.73ZM118.28,243.93h-4.73c-1.4,0-2.54,1.14-2.54,2.54v4.1c0,1.4,1.14,2.54,2.54,2.54h4.73c1.4,0,2.54-1.14,2.54-2.54v-4.1c0-1.4-1.14-2.54-2.54-2.54h0Z"/>
            </g>
            <g>
              <rect class="cls-13" x="129.53" y="245.2" width="7.27" height="6.65" rx="1.27" ry="1.27"/>
              <path class="cls-11" d="M135.53,246.47v4.1h-4.73v-4.1h4.73ZM135.53,243.93h-4.73c-1.4,0-2.54,1.14-2.54,2.54v4.1c0,1.4,1.14,2.54,2.54,2.54h4.73c1.4,0,2.54-1.14,2.54-2.54v-4.1c0-1.4-1.14-2.54-2.54-2.54h0Z"/>
            </g>
          </g>
          <g>
            <g>
              <rect class="cls-13" x="77.77" y="258.29" width="7.27" height="6.65" rx="1.27" ry="1.27"/>
              <path class="cls-11" d="M83.77,259.56v4.1h-4.73v-4.1h4.73ZM83.77,257.02h-4.73c-1.4,0-2.54,1.14-2.54,2.54v4.1c0,1.4,1.14,2.54,2.54,2.54h4.73c1.4,0,2.54-1.14,2.54-2.54v-4.1c0-1.4-1.14-2.54-2.54-2.54h0Z"/>
            </g>
            <g>
              <rect class="cls-13" x="95.03" y="258.29" width="7.27" height="6.65" rx="1.27" ry="1.27"/>
              <path class="cls-11" d="M101.02,259.56v4.1h-4.73v-4.1h4.73ZM101.02,257.02h-4.73c-1.4,0-2.54,1.14-2.54,2.54v4.1c0,1.4,1.14,2.54,2.54,2.54h4.73c1.4,0,2.54-1.14,2.54-2.54v-4.1c0-1.4-1.14-2.54-2.54-2.54h0Z"/>
            </g>
            <g>
              <rect class="cls-13" x="112.28" y="258.29" width="7.27" height="6.65" rx="1.27" ry="1.27"/>
              <path class="cls-11" d="M118.28,259.56v4.1h-4.73v-4.1h4.73ZM118.28,257.02h-4.73c-1.4,0-2.54,1.14-2.54,2.54v4.1c0,1.4,1.14,2.54,2.54,2.54h4.73c1.4,0,2.54-1.14,2.54-2.54v-4.1c0-1.4-1.14-2.54-2.54-2.54h0Z"/>
            </g>
            <g>
              <rect class="cls-13" x="129.53" y="258.29" width="7.27" height="6.65" rx="1.27" ry="1.27"/>
              <path class="cls-11" d="M135.53,259.56v4.1h-4.73v-4.1h4.73ZM135.53,257.02h-4.73c-1.4,0-2.54,1.14-2.54,2.54v4.1c0,1.4,1.14,2.54,2.54,2.54h4.73c1.4,0,2.54-1.14,2.54-2.54v-4.1c0-1.4-1.14-2.54-2.54-2.54h0Z"/>
            </g>
          </g>
          <g>
            <g>
              <rect class="cls-13" x="77.77" y="271.37" width="7.27" height="6.65" rx="1.27" ry="1.27"/>
              <path class="cls-11" d="M83.77,272.64v4.1h-4.73v-4.1h4.73ZM83.77,270.1h-4.73c-1.4,0-2.54,1.14-2.54,2.54v4.1c0,1.4,1.14,2.54,2.54,2.54h4.73c1.4,0,2.54-1.14,2.54-2.54v-4.1c0-1.4-1.14-2.54-2.54-2.54h0Z"/>
            </g>
            <g>
              <rect class="cls-13" x="95.03" y="271.37" width="7.27" height="6.65" rx="1.27" ry="1.27"/>
              <path class="cls-11" d="M101.02,272.64v4.1h-4.73v-4.1h4.73ZM101.02,270.1h-4.73c-1.4,0-2.54,1.14-2.54,2.54v4.1c0,1.4,1.14,2.54,2.54,2.54h4.73c1.4,0,2.54-1.14,2.54-2.54v-4.1c0-1.4-1.14-2.54-2.54-2.54h0Z"/>
            </g>
            <g>
              <rect class="cls-13" x="112.28" y="271.37" width="7.27" height="6.65" rx="1.27" ry="1.27"/>
              <path class="cls-11" d="M118.28,272.64v4.1h-4.73v-4.1h4.73ZM118.28,270.1h-4.73c-1.4,0-2.54,1.14-2.54,2.54v4.1c0,1.4,1.14,2.54,2.54,2.54h4.73c1.4,0,2.54-1.14,2.54-2.54v-4.1c0-1.4-1.14-2.54-2.54-2.54h0Z"/>
            </g>
            <g>
              <rect class="cls-13" x="129.53" y="271.37" width="7.27" height="6.65" rx="1.27" ry="1.27"/>
              <path class="cls-11" d="M135.53,272.64v4.1h-4.73v-4.1h4.73ZM135.53,270.1h-4.73c-1.4,0-2.54,1.14-2.54,2.54v4.1c0,1.4,1.14,2.54,2.54,2.54h4.73c1.4,0,2.54-1.14,2.54-2.54v-4.1c0-1.4-1.14-2.54-2.54-2.54h0Z"/>
            </g>
          </g>
          <g>
            <g>
              <rect class="cls-13" x="77.77" y="284.46" width="7.27" height="6.65" rx="1.27" ry="1.27"/>
              <path class="cls-11" d="M83.77,285.73v4.1h-4.73v-4.1h4.73ZM83.77,283.19h-4.73c-1.4,0-2.54,1.14-2.54,2.54v4.1c0,1.4,1.14,2.54,2.54,2.54h4.73c1.4,0,2.54-1.14,2.54-2.54v-4.1c0-1.4-1.14-2.54-2.54-2.54h0Z"/>
            </g>
            <g>
              <rect class="cls-13" x="95.03" y="284.46" width="7.27" height="6.65" rx="1.27" ry="1.27"/>
              <path class="cls-11" d="M101.02,285.73v4.1h-4.73v-4.1h4.73ZM101.02,283.19h-4.73c-1.4,0-2.54,1.14-2.54,2.54v4.1c0,1.4,1.14,2.54,2.54,2.54h4.73c1.4,0,2.54-1.14,2.54-2.54v-4.1c0-1.4-1.14-2.54-2.54-2.54h0Z"/>
            </g>
            <g>
              <rect class="cls-13" x="112.28" y="284.46" width="7.27" height="6.65" rx="1.27" ry="1.27"/>
              <path class="cls-11" d="M118.28,285.73v4.1h-4.73v-4.1h4.73ZM118.28,283.19h-4.73c-1.4,0-2.54,1.14-2.54,2.54v4.1c0,1.4,1.14,2.54,2.54,2.54h4.73c1.4,0,2.54-1.14,2.54-2.54v-4.1c0-1.4-1.14-2.54-2.54-2.54h0Z"/>
            </g>
            <g>
              <rect class="cls-13" x="129.53" y="284.46" width="7.27" height="6.65" rx="1.27" ry="1.27"/>
              <path class="cls-11" d="M135.53,285.73v4.1h-4.73v-4.1h4.73ZM135.53,283.19h-4.73c-1.4,0-2.54,1.14-2.54,2.54v4.1c0,1.4,1.14,2.54,2.54,2.54h4.73c1.4,0,2.54-1.14,2.54-2.54v-4.1c0-1.4-1.14-2.54-2.54-2.54h0Z"/>
            </g>
          </g>
        </g>
      </g>
      <g>
        <g>
          <rect class="cls-14" x="235.44" y="138.95" width="12.43" height="22.64" rx="1.91" ry="1.91"/>
          <path class="cls-11" d="M245.96,140.86v18.83h-8.62v-18.83h8.62ZM245.96,137.04h-8.62c-2.11,0-3.81,1.71-3.81,3.81v18.83c0,2.11,1.71,3.81,3.81,3.81h8.62c2.11,0,3.81-1.71,3.81-3.81v-18.83c0-2.11-1.71-3.81-3.81-3.81h0Z"/>
        </g>
        <g class="cls-19">
          <rect class="cls-11" x="241.51" y="140.86" width="4.45" height="18.83"/>
        </g>
        <g>
          <rect class="cls-9" x="168.5" y="155.85" width="92.53" height="126.68" rx="1.91" ry="1.91"/>
          <path class="cls-11" d="M259.12,157.76v122.87h-88.72v-122.87h88.72ZM259.12,153.94h-88.72c-2.11,0-3.81,1.71-3.81,3.81v122.87c0,2.11,1.71,3.81,3.81,3.81h88.72c2.11,0,3.81-1.71,3.81-3.81v-122.87c0-2.11-1.71-3.81-3.81-3.81h0Z"/>
        </g>
        <g class="cls-19">
          <polygon class="cls-11" points="170.4 157.76 170.4 174.28 255.31 174.28 255.31 280.63 259.12 280.63 259.12 157.76 170.4 157.76"/>
        </g>
        <g>
          <path class="cls-8" d="M163.62,169.57c-1.05,0-1.91-.85-1.91-1.91v-1.62c0-7.72,6.28-14.01,14.01-14.01h78.08c7.72,0,14.01,6.28,14.01,14.01v1.62c0,1.05-.85,1.91-1.91,1.91h-102.29Z"/>
          <path class="cls-11" d="M253.8,153.94c6.68,0,12.1,5.42,12.1,12.1v1.62h-102.29v-1.62c0-6.68,5.42-12.1,12.1-12.1h78.08ZM253.8,150.13h-78.08c-8.78,0-15.92,7.14-15.92,15.92v1.62c0,2.11,1.71,3.81,3.81,3.81h102.29c2.11,0,3.81-1.71,3.81-3.81v-1.62c0-8.78-7.14-15.92-15.92-15.92h0Z"/>
        </g>
        <g class="cls-19">
          <path class="cls-11" d="M253.8,153.94h-78.08c-4.34,0-8.14,2.29-10.27,5.73.03,0,.07,0,.1,0h78.08c5.24,0,9.69,3.34,11.38,8h10.9v-1.62c0-6.68-5.42-12.1-12.1-12.1Z"/>
        </g>
        <g class="cls-19">
          <rect class="cls-11" x="174.73" y="176.92" width="80.07" height="9.35" rx="3.81" ry="3.81"/>
          <rect class="cls-11" x="174.73" y="191.31" width="80.07" height="9.35" rx="3.81" ry="3.81"/>
          <rect class="cls-11" x="174.73" y="205.71" width="80.07" height="9.35" rx="3.81" ry="3.81"/>
          <rect class="cls-11" x="174.73" y="220.11" width="80.07" height="9.35" rx="3.81" ry="3.81"/>
          <rect class="cls-11" x="174.73" y="234.5" width="80.07" height="9.35" rx="3.81" ry="3.81"/>
          <rect class="cls-11" x="174.73" y="248.9" width="80.07" height="9.35" rx="3.81" ry="3.81"/>
          <rect class="cls-11" x="174.73" y="263.29" width="80.07" height="9.35" rx="3.81" ry="3.81"/>
        </g>
        <g>
          <rect class="cls-13" x="176.63" y="176.28" width="76.26" height="5.53" rx="1.91" ry="1.91"/>
          <path class="cls-11" d="M250.99,178.19v1.72h-72.45v-1.72h72.45ZM250.99,174.38h-72.45c-2.11,0-3.81,1.71-3.81,3.81v1.72c0,2.11,1.71,3.81,3.81,3.81h72.45c2.11,0,3.81-1.71,3.81-3.81v-1.72c0-2.11-1.71-3.81-3.81-3.81h0Z"/>
        </g>
        <g>
          <rect class="cls-13" x="176.63" y="190.68" width="76.26" height="5.53" rx="1.91" ry="1.91"/>
          <path class="cls-11" d="M250.99,192.59v1.72h-72.45v-1.72h72.45ZM250.99,188.77h-72.45c-2.11,0-3.81,1.71-3.81,3.81v1.72c0,2.11,1.71,3.81,3.81,3.81h72.45c2.11,0,3.81-1.71,3.81-3.81v-1.72c0-2.11-1.71-3.81-3.81-3.81h0Z"/>
        </g>
        <g>
          <rect class="cls-13" x="176.63" y="205.08" width="76.26" height="5.53" rx="1.91" ry="1.91"/>
          <path class="cls-11" d="M250.99,206.98v1.72h-72.45v-1.72h72.45ZM250.99,203.17h-72.45c-2.11,0-3.81,1.71-3.81,3.81v1.72c0,2.11,1.71,3.81,3.81,3.81h72.45c2.11,0,3.81-1.71,3.81-3.81v-1.72c0-2.11-1.71-3.81-3.81-3.81h0Z"/>
        </g>
        <g>
          <rect class="cls-13" x="176.63" y="219.47" width="76.26" height="5.53" rx="1.91" ry="1.91"/>
          <path class="cls-11" d="M250.99,221.38v1.72h-72.45v-1.72h72.45ZM250.99,217.56h-72.45c-2.11,0-3.81,1.71-3.81,3.81v1.72c0,2.11,1.71,3.81,3.81,3.81h72.45c2.11,0,3.81-1.71,3.81-3.81v-1.72c0-2.11-1.71-3.81-3.81-3.81h0Z"/>
        </g>
        <g>
          <rect class="cls-13" x="176.63" y="233.87" width="76.26" height="5.53" rx="1.91" ry="1.91"/>
          <path class="cls-11" d="M250.99,235.77v1.72h-72.45v-1.72h72.45ZM250.99,231.96h-72.45c-2.11,0-3.81,1.71-3.81,3.81v1.72c0,2.11,1.71,3.81,3.81,3.81h72.45c2.11,0,3.81-1.71,3.81-3.81v-1.72c0-2.11-1.71-3.81-3.81-3.81h0Z"/>
        </g>
        <g>
          <rect class="cls-13" x="176.63" y="248.26" width="76.26" height="5.53" rx="1.91" ry="1.91"/>
          <path class="cls-11" d="M250.99,250.17v1.72h-72.45v-1.72h72.45ZM250.99,246.36h-72.45c-2.11,0-3.81,1.71-3.81,3.81v1.72c0,2.11,1.71,3.81,3.81,3.81h72.45c2.11,0,3.81-1.71,3.81-3.81v-1.72c0-2.11-1.71-3.81-3.81-3.81h0Z"/>
        </g>
        <g>
          <rect class="cls-13" x="176.63" y="262.66" width="76.26" height="5.53" rx="1.91" ry="1.91"/>
          <path class="cls-11" d="M250.99,264.57v1.72h-72.45v-1.72h72.45ZM250.99,260.75h-72.45c-2.11,0-3.81,1.71-3.81,3.81v1.72c0,2.11,1.71,3.81,3.81,3.81h72.45c2.11,0,3.81-1.71,3.81-3.81v-1.72c0-2.11-1.71-3.81-3.81-3.81h0Z"/>
        </g>
      </g>
      <g>
        <g>
          <rect class="cls-10" x="314.26" y="127.45" width="6.05" height="31.26" rx="1.91" ry="1.91"/>
          <path class="cls-11" d="M318.4,129.35v27.45h-2.23v-27.45h2.23ZM318.4,125.54h-2.23c-2.11,0-3.81,1.71-3.81,3.81v27.45c0,2.11,1.71,3.81,3.81,3.81h2.23c2.11,0,3.81-1.71,3.81-3.81v-27.45c0-2.11-1.71-3.81-3.81-3.81h0Z"/>
        </g>
        <g class="cls-19">
          <polygon class="cls-11" points="316.17 129.35 316.17 131.9 317.13 131.9 317.13 156.8 318.4 156.8 318.4 129.35 316.17 129.35"/>
        </g>
        <g>
          <rect class="cls-4" x="306.92" y="141.81" width="49.45" height="131.47" rx="1.91" ry="1.91"/>
          <path class="cls-11" d="M354.47,143.71v127.66h-45.64v-127.66h45.64ZM354.47,139.9h-45.64c-2.11,0-3.81,1.71-3.81,3.81v127.66c0,2.11,1.71,3.81,3.81,3.81h45.64c2.11,0,3.81-1.71,3.81-3.81v-127.66c0-2.11-1.71-3.81-3.81-3.81h0Z"/>
        </g>
        <g class="cls-19">
          <polygon class="cls-11" points="308.83 143.71 308.83 147.53 350.02 147.53 350.02 271.37 354.47 271.37 354.47 143.71 308.83 143.71"/>
        </g>
        <g>
          <g>
            <rect class="cls-13" x="317.46" y="151.38" width="8.35" height="7.96" rx="1.91" ry="1.91"/>
            <path class="cls-11" d="M323.9,153.29v4.15h-4.54v-4.15h4.54ZM323.9,149.48h-4.54c-2.11,0-3.81,1.71-3.81,3.81v4.15c0,2.11,1.71,3.81,3.81,3.81h4.54c2.11,0,3.81-1.71,3.81-3.81v-4.15c0-2.11-1.71-3.81-3.81-3.81h0Z"/>
          </g>
          <g>
            <rect class="cls-13" x="337.49" y="151.38" width="8.35" height="7.96" rx="1.91" ry="1.91"/>
            <path class="cls-11" d="M343.94,153.29v4.15h-4.54v-4.15h4.54ZM343.94,149.48h-4.54c-2.11,0-3.81,1.71-3.81,3.81v4.15c0,2.11,1.71,3.81,3.81,3.81h4.54c2.11,0,3.81-1.71,3.81-3.81v-4.15c0-2.11-1.71-3.81-3.81-3.81h0Z"/>
          </g>
        </g>
        <g>
          <g>
            <rect class="cls-13" x="317.46" y="166.64" width="8.35" height="7.96" rx="1.91" ry="1.91"/>
            <path class="cls-11" d="M323.9,168.54v4.15h-4.54v-4.15h4.54ZM323.9,164.73h-4.54c-2.11,0-3.81,1.71-3.81,3.81v4.15c0,2.11,1.71,3.81,3.81,3.81h4.54c2.11,0,3.81-1.71,3.81-3.81v-4.15c0-2.11-1.71-3.81-3.81-3.81h0Z"/>
          </g>
          <g>
            <rect class="cls-13" x="337.49" y="166.64" width="8.35" height="7.96" rx="1.91" ry="1.91"/>
            <path class="cls-11" d="M343.94,168.54v4.15h-4.54v-4.15h4.54ZM343.94,164.73h-4.54c-2.11,0-3.81,1.71-3.81,3.81v4.15c0,2.11,1.71,3.81,3.81,3.81h4.54c2.11,0,3.81-1.71,3.81-3.81v-4.15c0-2.11-1.71-3.81-3.81-3.81h0Z"/>
          </g>
        </g>
        <g>
          <g>
            <rect class="cls-13" x="317.46" y="181.89" width="8.35" height="7.96" rx="1.91" ry="1.91"/>
            <path class="cls-11" d="M323.9,183.8v4.15h-4.54v-4.15h4.54ZM323.9,179.98h-4.54c-2.11,0-3.81,1.71-3.81,3.81v4.15c0,2.11,1.71,3.81,3.81,3.81h4.54c2.11,0,3.81-1.71,3.81-3.81v-4.15c0-2.11-1.71-3.81-3.81-3.81h0Z"/>
          </g>
          <g>
            <rect class="cls-13" x="337.49" y="181.89" width="8.35" height="7.96" rx="1.91" ry="1.91"/>
            <path class="cls-11" d="M343.94,183.8v4.15h-4.54v-4.15h4.54ZM343.94,179.98h-4.54c-2.11,0-3.81,1.71-3.81,3.81v4.15c0,2.11,1.71,3.81,3.81,3.81h4.54c2.11,0,3.81-1.71,3.81-3.81v-4.15c0-2.11-1.71-3.81-3.81-3.81h0Z"/>
          </g>
        </g>
        <g>
          <g>
            <rect class="cls-13" x="317.46" y="197.14" width="8.35" height="7.96" rx="1.91" ry="1.91"/>
            <path class="cls-11" d="M323.9,199.05v4.15h-4.54v-4.15h4.54ZM323.9,195.24h-4.54c-2.11,0-3.81,1.71-3.81,3.81v4.15c0,2.11,1.71,3.81,3.81,3.81h4.54c2.11,0,3.81-1.71,3.81-3.81v-4.15c0-2.11-1.71-3.81-3.81-3.81h0Z"/>
          </g>
          <g>
            <rect class="cls-13" x="337.49" y="197.14" width="8.35" height="7.96" rx="1.91" ry="1.91"/>
            <path class="cls-11" d="M343.94,199.05v4.15h-4.54v-4.15h4.54ZM343.94,195.24h-4.54c-2.11,0-3.81,1.71-3.81,3.81v4.15c0,2.11,1.71,3.81,3.81,3.81h4.54c2.11,0,3.81-1.71,3.81-3.81v-4.15c0-2.11-1.71-3.81-3.81-3.81h0Z"/>
          </g>
        </g>
        <g>
          <g>
            <rect class="cls-13" x="317.46" y="212.4" width="8.35" height="7.96" rx="1.91" ry="1.91"/>
            <path class="cls-11" d="M323.9,214.31v4.15h-4.54v-4.15h4.54ZM323.9,210.49h-4.54c-2.11,0-3.81,1.71-3.81,3.81v4.15c0,2.11,1.71,3.81,3.81,3.81h4.54c2.11,0,3.81-1.71,3.81-3.81v-4.15c0-2.11-1.71-3.81-3.81-3.81h0Z"/>
          </g>
          <g>
            <rect class="cls-13" x="337.49" y="212.4" width="8.35" height="7.96" rx="1.91" ry="1.91"/>
            <path class="cls-11" d="M343.94,214.31v4.15h-4.54v-4.15h4.54ZM343.94,210.49h-4.54c-2.11,0-3.81,1.71-3.81,3.81v4.15c0,2.11,1.71,3.81,3.81,3.81h4.54c2.11,0,3.81-1.71,3.81-3.81v-4.15c0-2.11-1.71-3.81-3.81-3.81h0Z"/>
          </g>
        </g>
        <g>
          <g>
            <rect class="cls-13" x="317.46" y="227.65" width="8.35" height="7.96" rx="1.91" ry="1.91"/>
            <path class="cls-11" d="M323.9,229.56v4.15h-4.54v-4.15h4.54ZM323.9,225.75h-4.54c-2.11,0-3.81,1.71-3.81,3.81v4.15c0,2.11,1.71,3.81,3.81,3.81h4.54c2.11,0,3.81-1.71,3.81-3.81v-4.15c0-2.11-1.71-3.81-3.81-3.81h0Z"/>
          </g>
          <g>
            <rect class="cls-13" x="337.49" y="227.65" width="8.35" height="7.96" rx="1.91" ry="1.91"/>
            <path class="cls-11" d="M343.94,229.56v4.15h-4.54v-4.15h4.54ZM343.94,225.75h-4.54c-2.11,0-3.81,1.71-3.81,3.81v4.15c0,2.11,1.71,3.81,3.81,3.81h4.54c2.11,0,3.81-1.71,3.81-3.81v-4.15c0-2.11-1.71-3.81-3.81-3.81h0Z"/>
          </g>
        </g>
        <g>
          <g>
            <rect class="cls-13" x="317.46" y="242.91" width="8.35" height="7.96" rx="1.91" ry="1.91"/>
            <path class="cls-11" d="M323.9,244.81v4.15h-4.54v-4.15h4.54ZM323.9,241h-4.54c-2.11,0-3.81,1.71-3.81,3.81v4.15c0,2.11,1.71,3.81,3.81,3.81h4.54c2.11,0,3.81-1.71,3.81-3.81v-4.15c0-2.11-1.71-3.81-3.81-3.81h0Z"/>
          </g>
          <g>
            <rect class="cls-13" x="337.49" y="242.91" width="8.35" height="7.96" rx="1.91" ry="1.91"/>
            <path class="cls-11" d="M343.94,244.81v4.15h-4.54v-4.15h4.54ZM343.94,241h-4.54c-2.11,0-3.81,1.71-3.81,3.81v4.15c0,2.11,1.71,3.81,3.81,3.81h4.54c2.11,0,3.81-1.71,3.81-3.81v-4.15c0-2.11-1.71-3.81-3.81-3.81h0Z"/>
          </g>
        </g>
        <g>
          <g>
            <rect class="cls-13" x="317.46" y="258.16" width="8.35" height="7.96" rx="1.91" ry="1.91"/>
            <path class="cls-11" d="M323.9,260.07v4.15h-4.54v-4.15h4.54ZM323.9,256.25h-4.54c-2.11,0-3.81,1.71-3.81,3.81v4.15c0,2.11,1.71,3.81,3.81,3.81h4.54c2.11,0,3.81-1.71,3.81-3.81v-4.15c0-2.11-1.71-3.81-3.81-3.81h0Z"/>
          </g>
          <g>
            <rect class="cls-13" x="337.49" y="258.16" width="8.35" height="7.96" rx="1.91" ry="1.91"/>
            <path class="cls-11" d="M343.94,260.07v4.15h-4.54v-4.15h4.54ZM343.94,256.25h-4.54c-2.11,0-3.81,1.71-3.81,3.81v4.15c0,2.11,1.71,3.81,3.81,3.81h4.54c2.11,0,3.81-1.71,3.81-3.81v-4.15c0-2.11-1.71-3.81-3.81-3.81h0Z"/>
          </g>
        </g>
      </g>
      <g>
        <g>
          <rect class="cls-2" x="288.41" y="185.53" width="86.79" height="105.62" rx="1.91" ry="1.91"/>
          <path class="cls-11" d="M373.3,187.44v101.81h-82.98v-101.81h82.98ZM373.3,183.62h-82.98c-2.11,0-3.81,1.71-3.81,3.81v101.81c0,2.11,1.71,3.81,3.81,3.81h82.98c2.11,0,3.81-1.71,3.81-3.81v-101.81c0-2.11-1.71-3.81-3.81-3.81h0Z"/>
        </g>
        <g class="cls-19">
          <polygon class="cls-11" points="290.32 187.44 290.32 196.97 367.58 196.97 367.58 289.24 373.3 289.24 373.3 187.44 290.32 187.44"/>
        </g>
        <g>
          <path class="cls-8" d="M286.51,182.98h89.96c2.3,0,4.16,1.86,4.16,4.16v.6c0,2.3-1.86,4.16-4.16,4.16h-89.96c-2.3,0-4.16-1.86-4.16-4.16v-.6c0-2.3,1.86-4.16,4.16-4.16Z"/>
          <path class="cls-11" d="M376.47,184.88c1.24,0,2.25,1.01,2.25,2.25v.6c0,1.24-1.01,2.25-2.25,2.25h-89.96c-1.24,0-2.25-1.01-2.25-2.25v-.6c0-1.24,1.01-2.25,2.25-2.25h89.96ZM376.47,181.07h-89.96c-3.34,0-6.07,2.72-6.07,6.07v.6c0,3.34,2.72,6.07,6.07,6.07h89.96c3.34,0,6.07-2.72,6.07-6.07v-.6c0-3.34-2.72-6.07-6.07-6.07h0Z"/>
        </g>
        <g class="cls-19">
          <path class="cls-11" d="M376.47,187.45h-89.96c-.89,0-1.66-.53-2.02-1.28-.14.29-.23.62-.23.97v.6c0,1.24,1.01,2.25,2.25,2.25h89.96c1.24,0,2.25-1.01,2.25-2.25v-.6c0-.35-.09-.68-.23-.97-.36.76-1.13,1.28-2.02,1.28Z"/>
        </g>
        <g class="cls-19">
          <path class="cls-11" d="M314.83,217.29v-12.64c0-1.76-1.42-3.18-3.18-3.18h-11.81c-1.76,0-3.18,1.42-3.18,3.18v12.64c-1.57.5-2.71,1.97-2.71,3.7v.19c0,2.14,1.74,3.88,3.88,3.88h15.83c2.14,0,3.88-1.74,3.88-3.88v-.19c0-1.73-1.14-3.2-2.71-3.7Z"/>
          <path class="cls-11" d="M340.89,217.29v-12.64c0-1.76-1.42-3.18-3.18-3.18h-11.81c-1.76,0-3.18,1.42-3.18,3.18v12.64c-1.57.5-2.71,1.97-2.71,3.7v.19c0,2.14,1.74,3.88,3.88,3.88h15.83c2.14,0,3.88-1.74,3.88-3.88v-.19c0-1.73-1.14-3.2-2.71-3.7Z"/>
          <path class="cls-11" d="M366.95,217.29v-12.64c0-1.76-1.42-3.18-3.18-3.18h-11.81c-1.76,0-3.18,1.42-3.18,3.18v12.64c-1.57.5-2.71,1.97-2.71,3.7v.19c0,2.14,1.74,3.88,3.88,3.88h15.83c2.14,0,3.88-1.74,3.88-3.88v-.19c0-1.73-1.14-3.2-2.71-3.7Z"/>
          <path class="cls-11" d="M314.83,245.89v-12.64c0-1.76-1.42-3.18-3.18-3.18h-11.81c-1.76,0-3.18,1.42-3.18,3.18v12.64c-1.57.5-2.71,1.97-2.71,3.7v.19c0,2.14,1.74,3.88,3.88,3.88h15.83c2.14,0,3.88-1.74,3.88-3.88v-.19c0-1.73-1.14-3.2-2.71-3.7Z"/>
          <path class="cls-11" d="M340.89,245.89v-12.64c0-1.76-1.42-3.18-3.18-3.18h-11.81c-1.76,0-3.18,1.42-3.18,3.18v12.64c-1.57.5-2.71,1.97-2.71,3.7v.19c0,2.14,1.74,3.88,3.88,3.88h15.83c2.14,0,3.88-1.74,3.88-3.88v-.19c0-1.73-1.14-3.2-2.71-3.7Z"/>
          <path class="cls-11" d="M366.95,245.89v-12.64c0-1.76-1.42-3.18-3.18-3.18h-11.81c-1.76,0-3.18,1.42-3.18,3.18v12.64c-1.57.5-2.71,1.97-2.71,3.7v.19c0,2.14,1.74,3.88,3.88,3.88h15.83c2.14,0,3.88-1.74,3.88-3.88v-.19c0-1.73-1.14-3.2-2.71-3.7Z"/>
          <path class="cls-11" d="M314.83,274.5v-12.64c0-1.76-1.42-3.18-3.18-3.18h-11.81c-1.76,0-3.18,1.42-3.18,3.18v12.64c-1.57.5-2.71,1.97-2.71,3.7v.19c0,2.14,1.74,3.88,3.88,3.88h15.83c2.14,0,3.88-1.74,3.88-3.88v-.19c0-1.73-1.14-3.2-2.71-3.7Z"/>
          <path class="cls-11" d="M340.89,274.5v-12.64c0-1.76-1.42-3.18-3.18-3.18h-11.81c-1.76,0-3.18,1.42-3.18,3.18v12.64c-1.57.5-2.71,1.97-2.71,3.7v.19c0,2.14,1.74,3.88,3.88,3.88h15.83c2.14,0,3.88-1.74,3.88-3.88v-.19c0-1.73-1.14-3.2-2.71-3.7Z"/>
          <path class="cls-11" d="M366.95,274.5v-12.64c0-1.76-1.42-3.18-3.18-3.18h-11.81c-1.76,0-3.18,1.42-3.18,3.18v12.64c-1.57.5-2.71,1.97-2.71,3.7v.19c0,2.14,1.74,3.88,3.88,3.88h15.83c2.14,0,3.88-1.74,3.88-3.88v-.19c0-1.73-1.14-3.2-2.71-3.7Z"/>
        </g>
        <g>
          <g>
            <g>
              <rect class="cls-13" x="298.26" y="200.52" width="14.99" height="20.41" rx="1.59" ry="1.59"/>
              <path class="cls-11" d="M311.65,202.11v17.23h-11.81v-17.23h11.81ZM311.65,198.93h-11.81c-1.76,0-3.18,1.42-3.18,3.18v17.23c0,1.76,1.42,3.18,3.18,3.18h11.81c1.76,0,3.18-1.42,3.18-3.18v-17.23c0-1.76-1.42-3.18-3.18-3.18h0Z"/>
            </g>
            <g>
              <path class="cls-13" d="M297.84,216.16h15.83c1.27,0,2.29,1.03,2.29,2.29v.19c0,1.27-1.03,2.29-2.29,2.29h-15.83c-1.27,0-2.29-1.03-2.29-2.29v-.19c0-1.27,1.03-2.29,2.29-2.29Z"/>
              <path class="cls-11" d="M313.66,217.75c.39,0,.7.32.7.7v.19c0,.39-.32.7-.7.7h-15.83c-.39,0-.7-.32-.7-.7v-.19c0-.39.32-.7.7-.7h15.83ZM313.66,214.57h-15.83c-2.14,0-3.88,1.74-3.88,3.88v.19c0,2.14,1.74,3.88,3.88,3.88h15.83c2.14,0,3.88-1.74,3.88-3.88v-.19c0-2.14-1.74-3.88-3.88-3.88h0Z"/>
            </g>
          </g>
          <g>
            <rect class="cls-13" x="324.32" y="200.52" width="14.99" height="20.41" rx="1.59" ry="1.59"/>
            <path class="cls-11" d="M337.71,202.11v17.23h-11.81v-17.23h11.81ZM337.71,198.93h-11.81c-1.76,0-3.18,1.42-3.18,3.18v17.23c0,1.76,1.42,3.18,3.18,3.18h11.81c1.76,0,3.18-1.42,3.18-3.18v-17.23c0-1.76-1.42-3.18-3.18-3.18h0Z"/>
          </g>
          <g>
            <path class="cls-13" d="M323.9,216.16h15.83c1.27,0,2.29,1.03,2.29,2.29v.19c0,1.27-1.03,2.29-2.29,2.29h-15.83c-1.27,0-2.29-1.03-2.29-2.29v-.19c0-1.27,1.03-2.29,2.29-2.29Z"/>
            <path class="cls-11" d="M339.72,217.75c.39,0,.7.32.7.7v.19c0,.39-.32.7-.7.7h-15.83c-.39,0-.7-.32-.7-.7v-.19c0-.39.32-.7.7-.7h15.83ZM339.72,214.57h-15.83c-2.14,0-3.88,1.74-3.88,3.88v.19c0,2.14,1.74,3.88,3.88,3.88h15.83c2.14,0,3.88-1.74,3.88-3.88v-.19c0-2.14-1.74-3.88-3.88-3.88h0Z"/>
          </g>
          <g>
            <g>
              <rect class="cls-13" x="350.37" y="200.52" width="14.99" height="20.41" rx="1.59" ry="1.59"/>
              <path class="cls-11" d="M363.77,202.11v17.23h-11.81v-17.23h11.81ZM363.77,198.93h-11.81c-1.76,0-3.18,1.42-3.18,3.18v17.23c0,1.76,1.42,3.18,3.18,3.18h11.81c1.76,0,3.18-1.42,3.18-3.18v-17.23c0-1.76-1.42-3.18-3.18-3.18h0Z"/>
            </g>
            <g>
              <path class="cls-13" d="M349.95,216.16h15.83c1.27,0,2.29,1.03,2.29,2.29v.19c0,1.27-1.03,2.29-2.29,2.29h-15.83c-1.27,0-2.29-1.03-2.29-2.29v-.19c0-1.27,1.03-2.29,2.29-2.29Z"/>
              <path class="cls-11" d="M365.78,217.75c.39,0,.7.32.7.7v.19c0,.39-.32.7-.7.7h-15.83c-.39,0-.7-.32-.7-.7v-.19c0-.39.32-.7.7-.7h15.83ZM365.78,214.57h-15.83c-2.14,0-3.88,1.74-3.88,3.88v.19c0,2.14,1.74,3.88,3.88,3.88h15.83c2.14,0,3.88-1.74,3.88-3.88v-.19c0-2.14-1.74-3.88-3.88-3.88h0Z"/>
            </g>
          </g>
        </g>
        <g>
          <g>
            <g>
              <rect class="cls-13" x="298.26" y="229.12" width="14.99" height="20.41" rx="1.59" ry="1.59"/>
              <path class="cls-11" d="M311.65,230.71v17.23h-11.81v-17.23h11.81ZM311.65,227.53h-11.81c-1.76,0-3.18,1.42-3.18,3.18v17.23c0,1.76,1.42,3.18,3.18,3.18h11.81c1.76,0,3.18-1.42,3.18-3.18v-17.23c0-1.76-1.42-3.18-3.18-3.18h0Z"/>
            </g>
            <g>
              <path class="cls-13" d="M297.84,244.76h15.83c1.27,0,2.29,1.03,2.29,2.29v.19c0,1.27-1.03,2.29-2.29,2.29h-15.83c-1.27,0-2.29-1.03-2.29-2.29v-.19c0-1.27,1.03-2.29,2.29-2.29Z"/>
              <path class="cls-11" d="M313.66,246.35c.39,0,.7.32.7.7v.19c0,.39-.32.7-.7.7h-15.83c-.39,0-.7-.32-.7-.7v-.19c0-.39.32-.7.7-.7h15.83ZM313.66,243.17h-15.83c-2.14,0-3.88,1.74-3.88,3.88v.19c0,2.14,1.74,3.88,3.88,3.88h15.83c2.14,0,3.88-1.74,3.88-3.88v-.19c0-2.14-1.74-3.88-3.88-3.88h0Z"/>
            </g>
          </g>
          <g>
            <rect class="cls-13" x="324.32" y="229.12" width="14.99" height="20.41" rx="1.59" ry="1.59"/>
            <path class="cls-11" d="M337.71,230.71v17.23h-11.81v-17.23h11.81ZM337.71,227.53h-11.81c-1.76,0-3.18,1.42-3.18,3.18v17.23c0,1.76,1.42,3.18,3.18,3.18h11.81c1.76,0,3.18-1.42,3.18-3.18v-17.23c0-1.76-1.42-3.18-3.18-3.18h0Z"/>
          </g>
          <g>
            <path class="cls-13" d="M323.9,244.76h15.83c1.27,0,2.29,1.03,2.29,2.29v.19c0,1.27-1.03,2.29-2.29,2.29h-15.83c-1.27,0-2.29-1.03-2.29-2.29v-.19c0-1.27,1.03-2.29,2.29-2.29Z"/>
            <path class="cls-11" d="M339.72,246.35c.39,0,.7.32.7.7v.19c0,.39-.32.7-.7.7h-15.83c-.39,0-.7-.32-.7-.7v-.19c0-.39.32-.7.7-.7h15.83ZM339.72,243.17h-15.83c-2.14,0-3.88,1.74-3.88,3.88v.19c0,2.14,1.74,3.88,3.88,3.88h15.83c2.14,0,3.88-1.74,3.88-3.88v-.19c0-2.14-1.74-3.88-3.88-3.88h0Z"/>
          </g>
          <g>
            <g>
              <rect class="cls-13" x="350.37" y="229.12" width="14.99" height="20.41" rx="1.59" ry="1.59"/>
              <path class="cls-11" d="M363.77,230.71v17.23h-11.81v-17.23h11.81ZM363.77,227.53h-11.81c-1.76,0-3.18,1.42-3.18,3.18v17.23c0,1.76,1.42,3.18,3.18,3.18h11.81c1.76,0,3.18-1.42,3.18-3.18v-17.23c0-1.76-1.42-3.18-3.18-3.18h0Z"/>
            </g>
            <g>
              <path class="cls-13" d="M349.95,244.76h15.83c1.27,0,2.29,1.03,2.29,2.29v.19c0,1.27-1.03,2.29-2.29,2.29h-15.83c-1.27,0-2.29-1.03-2.29-2.29v-.19c0-1.27,1.03-2.29,2.29-2.29Z"/>
              <path class="cls-11" d="M365.78,246.35c.39,0,.7.32.7.7v.19c0,.39-.32.7-.7.7h-15.83c-.39,0-.7-.32-.7-.7v-.19c0-.39.32-.7.7-.7h15.83ZM365.78,243.17h-15.83c-2.14,0-3.88,1.74-3.88,3.88v.19c0,2.14,1.74,3.88,3.88,3.88h15.83c2.14,0,3.88-1.74,3.88-3.88v-.19c0-2.14-1.74-3.88-3.88-3.88h0Z"/>
            </g>
          </g>
        </g>
        <g>
          <g>
            <g>
              <rect class="cls-13" x="298.26" y="257.72" width="14.99" height="20.41" rx="1.59" ry="1.59"/>
              <path class="cls-11" d="M311.65,259.31v17.23h-11.81v-17.23h11.81ZM311.65,256.13h-11.81c-1.76,0-3.18,1.42-3.18,3.18v17.23c0,1.76,1.42,3.18,3.18,3.18h11.81c1.76,0,3.18-1.42,3.18-3.18v-17.23c0-1.76-1.42-3.18-3.18-3.18h0Z"/>
            </g>
            <g>
              <path class="cls-13" d="M297.84,273.36h15.83c1.27,0,2.29,1.03,2.29,2.29v.19c0,1.27-1.03,2.29-2.29,2.29h-15.83c-1.27,0-2.29-1.03-2.29-2.29v-.19c0-1.27,1.03-2.29,2.29-2.29Z"/>
              <path class="cls-11" d="M313.66,274.95c.39,0,.7.32.7.7v.19c0,.39-.32.7-.7.7h-15.83c-.39,0-.7-.32-.7-.7v-.19c0-.39.32-.7.7-.7h15.83ZM313.66,271.77h-15.83c-2.14,0-3.88,1.74-3.88,3.88v.19c0,2.14,1.74,3.88,3.88,3.88h15.83c2.14,0,3.88-1.74,3.88-3.88v-.19c0-2.14-1.74-3.88-3.88-3.88h0Z"/>
            </g>
          </g>
          <g>
            <rect class="cls-13" x="324.32" y="257.72" width="14.99" height="20.41" rx="1.59" ry="1.59"/>
            <path class="cls-11" d="M337.71,259.31v17.23h-11.81v-17.23h11.81ZM337.71,256.13h-11.81c-1.76,0-3.18,1.42-3.18,3.18v17.23c0,1.76,1.42,3.18,3.18,3.18h11.81c1.76,0,3.18-1.42,3.18-3.18v-17.23c0-1.76-1.42-3.18-3.18-3.18h0Z"/>
          </g>
          <g>
            <path class="cls-13" d="M323.9,273.36h15.83c1.27,0,2.29,1.03,2.29,2.29v.19c0,1.27-1.03,2.29-2.29,2.29h-15.83c-1.27,0-2.29-1.03-2.29-2.29v-.19c0-1.27,1.03-2.29,2.29-2.29Z"/>
            <path class="cls-11" d="M339.72,274.95c.39,0,.7.32.7.7v.19c0,.39-.32.7-.7.7h-15.83c-.39,0-.7-.32-.7-.7v-.19c0-.39.32-.7.7-.7h15.83ZM339.72,271.77h-15.83c-2.14,0-3.88,1.74-3.88,3.88v.19c0,2.14,1.74,3.88,3.88,3.88h15.83c2.14,0,3.88-1.74,3.88-3.88v-.19c0-2.14-1.74-3.88-3.88-3.88h0Z"/>
          </g>
          <g>
            <g>
              <rect class="cls-13" x="350.37" y="257.72" width="14.99" height="20.41" rx="1.59" ry="1.59"/>
              <path class="cls-11" d="M363.77,259.31v17.23h-11.81v-17.23h11.81ZM363.77,256.13h-11.81c-1.76,0-3.18,1.42-3.18,3.18v17.23c0,1.76,1.42,3.18,3.18,3.18h11.81c1.76,0,3.18-1.42,3.18-3.18v-17.23c0-1.76-1.42-3.18-3.18-3.18h0Z"/>
            </g>
            <g>
              <path class="cls-13" d="M349.95,273.36h15.83c1.27,0,2.29,1.03,2.29,2.29v.19c0,1.27-1.03,2.29-2.29,2.29h-15.83c-1.27,0-2.29-1.03-2.29-2.29v-.19c0-1.27,1.03-2.29,2.29-2.29Z"/>
              <path class="cls-11" d="M365.78,274.95c.39,0,.7.32.7.7v.19c0,.39-.32.7-.7.7h-15.83c-.39,0-.7-.32-.7-.7v-.19c0-.39.32-.7.7-.7h15.83ZM365.78,271.77h-15.83c-2.14,0-3.88,1.74-3.88,3.88v.19c0,2.14,1.74,3.88,3.88,3.88h15.83c2.14,0,3.88-1.74,3.88-3.88v-.19c0-2.14-1.74-3.88-3.88-3.88h0Z"/>
            </g>
          </g>
        </g>
      </g>
    </g>
    <g class="cls-17">
      <rect class="cls-6" x="40.57" y="16.18" width="324.19" height="256.46"/>
    </g>
    <g class="cls-16">
      <g class="cls-18">
        <rect class="cls-13" x="-91.79" y="70.48" width="509.54" height="22.65" transform="translate(-11.64 134.36) rotate(-43.4)"/>
      </g>
      <g class="cls-18">
        <rect class="cls-13" x="-69.14" y="117.86" width="509.54" height="50.57" transform="translate(-47.6 166.7) rotate(-43.4)"/>
      </g>
      <g class="cls-18">
        <rect class="cls-13" x="49.81" y="170.07" width="509.54" height="14.84" transform="translate(-38.67 257.82) rotate(-43.4)"/>
      </g>
      <g class="cls-18">
        <rect class="cls-13" x="58.22" y="207.2" width="509.54" height="33.14" transform="translate(-68.17 276.25) rotate(-43.4)"/>
      </g>
    </g>
  </g>
  <g>
    <path class="cls-1" d="M33.91,297.43c-7.89,0-14.3-6.42-14.3-14.3s6.42-14.3,14.3-14.3h337.5c7.89,0,14.3,6.42,14.3,14.3s-6.42,14.3-14.3,14.3H33.91Z"/>
    <path class="cls-11" d="M371.41,271.37c6.49,0,11.76,5.26,11.76,11.76s-5.26,11.76-11.76,11.76H33.91c-6.49,0-11.76-5.26-11.76-11.76s5.26-11.76,11.76-11.76h337.5ZM371.41,266.29H33.91c-9.29,0-16.84,7.56-16.84,16.84s7.56,16.84,16.84,16.84h337.5c9.29,0,16.84-7.56,16.84-16.84s-7.56-16.84-16.84-16.84h0Z"/>
  </g>
  <g class="cls-19">
    <path class="cls-11" d="M371.41,271.37h-7.69c.65,1.46,1.02,3.07,1.02,4.77h0c0,6.49-5.26,11.76-11.76,11.76H23.17c1.83,4.12,5.95,6.99,10.74,6.99h337.5c6.49,0,11.76-5.26,11.76-11.76h0c0-6.49-5.26-11.76-11.76-11.76Z"/>
  </g>
  <g>
    <rect class="cls-12" x="22.16" y="2.52" width="361.02" height="13.98"/>
    <path class="cls-11" d="M383.17,19.04H22.16c-1.4,0-2.54-1.14-2.54-2.54V2.52C19.61,1.11,20.75-.03,22.16-.03h361.02c1.4,0,2.54,1.14,2.54,2.54v13.98c0,1.4-1.14,2.54-2.54,2.54ZM24.7,13.96h355.93V5.06H24.7v8.9Z"/>
  </g>
  <g class="cls-19">
    <path class="cls-11" d="M22.16,2.52v5.72h337.5c4.56,0,8.26,3.7,8.26,8.26h0s15.25,0,15.25,0V2.52H22.16Z"/>
  </g>
  <path class="cls-11" d="M378.09,102.94c-1.4,0-2.54-1.14-2.54-2.54V16.5c0-1.4,1.14-2.54,2.54-2.54s2.54,1.14,2.54,2.54v83.9c0,1.4-1.14,2.54-2.54,2.54Z"/>
  <g>
    <rect class="cls-7" x="373" y="86.41" width="10.81" height="15.89" rx="4.37" ry="4.37"/>
    <path class="cls-11" d="M378.41,104.85c-4.38,0-7.94-3.56-7.94-7.94v-5.08c0-4.38,3.56-7.94,7.94-7.94s7.94,3.56,7.94,7.94v5.08c0,4.38-3.56,7.94-7.94,7.94ZM378.41,88.96c-1.58,0-2.86,1.28-2.86,2.86v5.08c0,1.58,1.28,2.86,2.86,2.86s2.86-1.28,2.86-2.86v-5.08c0-1.58-1.28-2.86-2.86-2.86Z"/>
  </g>
  <path class="cls-11" d="M374.57,296.79c-.7,0-1.27-.57-1.27-1.27v-9.53c0-.7.57-1.27,1.27-1.27s1.27.57,1.27,1.27v9.53c0,.7-.57,1.27-1.27,1.27Z"/>
  <path class="cls-11" d="M369.82,298.7c-.7,0-1.27-.57-1.27-1.27v-6.36c0-.7.57-1.27,1.27-1.27s1.27.57,1.27,1.27v6.36c0,.7-.57,1.27-1.27,1.27Z"/>
  <path class="cls-11" d="M369.82,287.26c-.7,0-1.27-.57-1.27-1.27v-1.91c0-.7.57-1.27,1.27-1.27s1.27.57,1.27,1.27v1.91c0,.7-.57,1.27-1.27,1.27Z"/>
  <path class="cls-11" d="M37.41,10.78h-12.71c-.7,0-1.27-.57-1.27-1.27s.57-1.27,1.27-1.27h12.71c.7,0,1.27.57,1.27,1.27s-.57,1.27-1.27,1.27Z"/>
  <path class="cls-11" d="M49.49,10.78h-6.36c-.7,0-1.27-.57-1.27-1.27s.57-1.27,1.27-1.27h6.36c.7,0,1.27.57,1.27,1.27s-.57,1.27-1.27,1.27Z"/>
</svg>