<?xml version="1.0" encoding="UTF-8"?>
<svg id="Layer_2" data-name="Layer 2" xmlns="http://www.w3.org/2000/svg" xmlns:xlink="http://www.w3.org/1999/xlink" viewBox="0 0 400 53.5">
  <defs>
    <style>
      .cls-1 {
        clip-path: url(#clippath);
      }

      .cls-2 {
        fill: none;
      }

      .cls-2, .cls-3, .cls-4, .cls-5, .cls-6 {
        stroke-width: 0px;
      }

      .cls-3 {
        fill: #f5cba7;
      }

      .cls-4 {
        fill: #1a5276;
      }

      .cls-7 {
        opacity: .3;
      }

      .cls-8 {
        opacity: .35;
      }

      .cls-9 {
        opacity: .5;
      }

      .cls-5 {
        fill: #d5dbdb;
      }

      .cls-6 {
        fill: #fff;
      }
    </style>
    <clipPath id="clippath">
      <rect class="cls-2" x="40.57" y="97.18" width="324.19" height="256.46"/>
    </clipPath>
  </defs>
  <g class="cls-9">
    <g class="cls-1">
      <g class="cls-7">
        <rect class="cls-6" x="-91.79" y="151.48" width="509.54" height="22.65" transform="translate(-67.3 156.51) rotate(-43.4)"/>
      </g>
      <g class="cls-7">
        <rect class="cls-6" x="-69.14" y="198.86" width="509.54" height="50.57" transform="translate(-103.25 188.85) rotate(-43.4)"/>
      </g>
    </g>
  </g>
  <g>
    <g>
      <polygon class="cls-5" points="370.66 51.03 29.34 51.03 35.7 37.05 364.3 37.05 370.66 51.03"/>
      <path class="cls-4" d="M370.66,53.57H29.34c-.86,0-1.67-.44-2.14-1.17-.47-.73-.53-1.64-.18-2.43l6.36-13.98c.41-.91,1.32-1.49,2.31-1.49h328.6c1,0,1.9.58,2.31,1.49l6.36,13.98c.36.79.29,1.7-.18,2.43-.47.73-1.27,1.17-2.14,1.17ZM33.29,48.49h333.42l-4.04-8.9H37.34l-4.04,8.9Z"/>
    </g>
    <g>
      <polygon class="cls-5" points="370.66 39.59 29.34 39.59 35.7 25.61 364.3 25.61 370.66 39.59"/>
      <path class="cls-4" d="M370.66,42.13H29.34c-.86,0-1.67-.44-2.14-1.17-.47-.73-.53-1.64-.18-2.43l6.36-13.98c.41-.91,1.32-1.49,2.31-1.49h328.6c1,0,1.9.58,2.31,1.49l6.36,13.98c.36.79.29,1.7-.18,2.43-.47.73-1.27,1.17-2.14,1.17ZM33.29,37.05h333.42l-4.04-8.9H37.34l-4.04,8.9Z"/>
    </g>
    <g>
      <polygon class="cls-5" points="370.66 28.15 29.34 28.15 35.7 14.17 364.3 14.17 370.66 28.15"/>
      <path class="cls-4" d="M370.66,30.69H29.34c-.86,0-1.67-.44-2.14-1.17-.47-.73-.53-1.64-.18-2.43l6.36-13.98c.41-.91,1.32-1.49,2.31-1.49h328.6c1,0,1.9.58,2.31,1.49l6.36,13.98c.36.79.29,1.7-.18,2.43-.47.73-1.27,1.17-2.14,1.17ZM33.29,25.61h333.42l-4.04-8.9H37.34l-4.04,8.9Z"/>
    </g>
    <g>
      <polygon class="cls-5" points="370.66 16.71 29.34 16.71 35.7 2.73 364.3 2.73 370.66 16.71"/>
      <path class="cls-4" d="M370.66,19.25H29.34c-.86,0-1.67-.44-2.14-1.17-.47-.73-.53-1.64-.18-2.43l6.36-13.98c.41-.91,1.32-1.49,2.31-1.49h328.6c1,0,1.9.58,2.31,1.49l6.36,13.98c.36.79.29,1.7-.18,2.43-.47.73-1.27,1.17-2.14,1.17ZM33.29,14.17h333.42l-4.04-8.9H37.34l-4.04,8.9Z"/>
    </g>
    <g class="cls-8">
      <polygon class="cls-4" points="35.7 11.63 364.3 11.63 366.61 16.71 370.66 16.71 364.3 2.73 35.7 2.73 29.34 16.71 33.39 16.71 35.7 11.63"/>
    </g>
    <g class="cls-8">
      <polygon class="cls-4" points="35.7 23.07 364.3 23.07 366.61 28.15 370.66 28.15 364.3 14.17 35.7 14.17 29.34 28.15 33.39 28.15 35.7 23.07"/>
    </g>
    <g class="cls-8">
      <polygon class="cls-4" points="35.7 34.51 364.3 34.51 366.61 39.59 370.66 39.59 364.3 25.61 35.7 25.61 29.34 39.59 33.39 39.59 35.7 34.51"/>
    </g>
    <g class="cls-8">
      <polygon class="cls-4" points="35.7 45.95 364.3 45.95 366.61 51.03 370.66 51.03 364.3 37.05 35.7 37.05 29.34 51.03 33.39 51.03 35.7 45.95"/>
    </g>
    <g>
      <path class="cls-3" d="M40.47,11.63l-1.27,3.81,1.27-3.81Z"/>
      <path class="cls-4" d="M39.2,16.71c-.13,0-.27-.02-.4-.07-.67-.22-1.03-.94-.8-1.61l1.27-3.81c.22-.67.95-1.03,1.61-.8.67.22,1.03.94.8,1.61l-1.27,3.81c-.18.53-.67.87-1.21.87Z"/>
    </g>
    <g>
      <path class="cls-3" d="M45.32,9.72l-1.67,5.72,1.67-5.72Z"/>
      <path class="cls-4" d="M43.64,16.71c-.12,0-.24-.02-.36-.05-.67-.2-1.06-.9-.86-1.58l1.67-5.72c.2-.67.9-1.06,1.58-.86.67.2,1.06.9.86,1.58l-1.67,5.72c-.16.55-.67.91-1.22.91Z"/>
    </g>
    <g>
      <path class="cls-3" d="M359.35,35.14l1.45,3.18-1.45-3.18Z"/>
      <path class="cls-4" d="M360.81,39.59c-.48,0-.94-.28-1.16-.74l-1.45-3.18c-.29-.64-.01-1.39.63-1.68.64-.29,1.39-.01,1.68.63l1.45,3.18c.29.64.01,1.39-.63,1.68-.17.08-.35.12-.53.12Z"/>
    </g>
    <g>
      <path class="cls-3" d="M354.23,32.68l2.34,5.56-2.34-5.56Z"/>
      <path class="cls-4" d="M356.57,39.51c-.5,0-.97-.29-1.17-.78l-2.34-5.56c-.27-.65.03-1.39.68-1.67.65-.27,1.39.03,1.67.68l2.34,5.56c.27.65-.03,1.39-.68,1.67-.16.07-.33.1-.49.1Z"/>
    </g>
    <g>
      <path class="cls-3" d="M93.22,40.86l-1.21,4.45,1.21-4.45Z"/>
      <path class="cls-4" d="M92.01,46.58c-.11,0-.22-.01-.33-.04-.68-.18-1.08-.88-.89-1.56l1.21-4.45c.18-.68.88-1.08,1.56-.89.68.18,1.08.88.89,1.56l-1.21,4.45c-.15.57-.67.94-1.23.94Z"/>
    </g>
  </g>
</svg>