<?xml version="1.0" encoding="UTF-8"?>
<svg id="window1_frame4" data-name="window1 frame4" xmlns="http://www.w3.org/2000/svg" viewBox="0 0 400 300">
  <defs>
    <style>
      .cls-1 {
        fill: #edbb99;
      }

      .cls-1, .cls-2, .cls-3, .cls-4 {
        stroke-width: 0px;
      }

      .cls-2 {
        fill: #b2babb;
      }

      .cls-3 {
        fill: #1a5276;
      }

      .cls-5 {
        opacity: .35;
      }

      .cls-4 {
        fill: #707b7c;
      }
    </style>
  </defs>
  <g>
    <path class="cls-1" d="M33.91,297.43c-7.89,0-14.3-6.42-14.3-14.3s6.42-14.3,14.3-14.3h337.5c7.89,0,14.3,6.42,14.3,14.3s-6.42,14.3-14.3,14.3H33.91Z"/>
    <path class="cls-3" d="M371.41,271.37c6.49,0,11.76,5.26,11.76,11.76s-5.26,11.76-11.76,11.76H33.91c-6.49,0-11.76-5.26-11.76-11.76s5.26-11.76,11.76-11.76h337.5ZM371.41,266.29H33.91c-9.29,0-16.84,7.56-16.84,16.84s7.56,16.84,16.84,16.84h337.5c9.29,0,16.84-7.56,16.84-16.84s-7.56-16.84-16.84-16.84h0Z"/>
  </g>
  <g class="cls-5">
    <path class="cls-3" d="M371.41,271.37h-7.69c.65,1.46,1.02,3.07,1.02,4.77h0c0,6.49-5.26,11.76-11.76,11.76H23.17c1.83,4.12,5.95,6.99,10.74,6.99h337.5c6.49,0,11.76-5.26,11.76-11.76h0c0-6.49-5.26-11.76-11.76-11.76Z"/>
  </g>
  <g>
    <rect class="cls-4" x="22.16" y="2.52" width="361.02" height="13.98"/>
    <path class="cls-3" d="M383.17,19.04H22.16c-1.4,0-2.54-1.14-2.54-2.54V2.52C19.61,1.11,20.75-.03,22.16-.03h361.02c1.4,0,2.54,1.14,2.54,2.54v13.98c0,1.4-1.14,2.54-2.54,2.54ZM24.7,13.96h355.93V5.06H24.7v8.9Z"/>
  </g>
  <g class="cls-5">
    <path class="cls-3" d="M22.16,2.52v5.72h337.5c4.56,0,8.26,3.7,8.26,8.26h0s15.25,0,15.25,0V2.52H22.16Z"/>
  </g>
  <path class="cls-3" d="M378.09,102.94c-1.4,0-2.54-1.14-2.54-2.54V16.5c0-1.4,1.14-2.54,2.54-2.54s2.54,1.14,2.54,2.54v83.9c0,1.4-1.14,2.54-2.54,2.54Z"/>
  <g>
    <rect class="cls-2" x="373" y="86.41" width="10.81" height="15.89" rx="4.37" ry="4.37"/>
    <path class="cls-3" d="M378.41,104.85c-4.38,0-7.94-3.56-7.94-7.94v-5.08c0-4.38,3.56-7.94,7.94-7.94s7.94,3.56,7.94,7.94v5.08c0,4.38-3.56,7.94-7.94,7.94ZM378.41,88.96c-1.58,0-2.86,1.28-2.86,2.86v5.08c0,1.58,1.28,2.86,2.86,2.86s2.86-1.28,2.86-2.86v-5.08c0-1.58-1.28-2.86-2.86-2.86Z"/>
  </g>
  <path class="cls-3" d="M374.57,296.79c-.7,0-1.27-.57-1.27-1.27v-9.53c0-.7.57-1.27,1.27-1.27s1.27.57,1.27,1.27v9.53c0,.7-.57,1.27-1.27,1.27Z"/>
  <path class="cls-3" d="M369.82,298.7c-.7,0-1.27-.57-1.27-1.27v-6.36c0-.7.57-1.27,1.27-1.27s1.27.57,1.27,1.27v6.36c0,.7-.57,1.27-1.27,1.27Z"/>
  <path class="cls-3" d="M369.82,287.26c-.7,0-1.27-.57-1.27-1.27v-1.91c0-.7.57-1.27,1.27-1.27s1.27.57,1.27,1.27v1.91c0,.7-.57,1.27-1.27,1.27Z"/>
  <path class="cls-3" d="M37.41,10.78h-12.71c-.7,0-1.27-.57-1.27-1.27s.57-1.27,1.27-1.27h12.71c.7,0,1.27.57,1.27,1.27s-.57,1.27-1.27,1.27Z"/>
  <path class="cls-3" d="M49.49,10.78h-6.36c-.7,0-1.27-.57-1.27-1.27s.57-1.27,1.27-1.27h6.36c.7,0,1.27.57,1.27,1.27s-.57,1.27-1.27,1.27Z"/>
</svg>