<?xml version="1.0" encoding="UTF-8"?>
<svg id="Layer_1" data-name="Layer 1" xmlns="http://www.w3.org/2000/svg" viewBox="0 0 36 28">
  <defs>
    <style>
      .cls-1 {
        fill: #e57673;
      }

      .cls-1, .cls-2, .cls-3 {
        stroke-width: 0px;
      }

      .cls-2 {
        fill: #fff;
      }

      .cls-3 {
        fill: #231f20;
      }
    </style>
  </defs>
  <rect class="cls-3" x="6.44" y="3.35" width="5.99" height="12" rx="3" ry="3"/>
  <g>
    <path class="cls-3" d="M13.29,7.75c-.1,0-.21-.02-.31-.05L3.75,4.71c-.42-.13-.7-.52-.69-.96,0-.44.29-.82.71-.95l1.43-.44c.09-.03.19-.04.29-.04.02,0,7.1.43,7.1.43.44.03.8.33.91.75l.75,3c.09.35-.02.73-.29.97-.19.18-.43.27-.68.27Z"/>
    <path class="cls-3" d="M5.5,3.33l7.04.43.75,3L4.06,3.76l1.43-.44M5.5,1.33c-.2,0-.39.03-.58.09l-1.43.44c-.84.25-1.41,1.02-1.42,1.9,0,.87.55,1.65,1.38,1.92l9.23,2.99c.2.07.41.1.62.1.5,0,.99-.19,1.37-.54.53-.5.75-1.24.57-1.95l-.75-3c-.21-.85-.95-1.46-1.82-1.51l-7.04-.43s-.08,0-.12,0h0Z"/>
  </g>
  <path class="cls-2" d="M7.31,11.22s-.38,3.11,2.81,3.04-2.81-3.04-2.81-3.04Z"/>
  <rect class="cls-3" x="23.73" y="3.35" width="5.99" height="12" rx="3" ry="3" transform="translate(53.45 18.69) rotate(-180)"/>
  <g>
    <path class="cls-3" d="M22.86,7.75c-.25,0-.5-.09-.68-.27-.27-.25-.38-.62-.29-.97l.75-3c.11-.42.47-.73.91-.75,0,0,7.08-.43,7.1-.43.1,0,.2.01.29.04l1.43.44c.42.13.71.51.71.95,0,.44-.28.83-.69.96l-9.23,2.99c-.1.03-.21.05-.31.05Z"/>
    <path class="cls-3" d="M30.66,3.33l1.43.44-9.23,2.99.75-3,7.04-.43M30.66,1.33s-.08,0-.12,0l-7.04.43c-.87.05-1.61.66-1.82,1.51l-.75,3c-.18.71.04,1.45.57,1.95.38.35.87.54,1.37.54.21,0,.41-.03.62-.1l9.23-2.99c.83-.27,1.39-1.05,1.38-1.92,0-.87-.58-1.64-1.42-1.9l-1.43-.44c-.19-.06-.38-.09-.58-.09h0Z"/>
  </g>
  <path class="cls-2" d="M28.85,11.22s.38,3.11-2.81,3.04,2.81-3.04,2.81-3.04Z"/>
  <g>
    <path class="cls-3" d="M18.68,25.67c-2.14,0-3.82-2.41-3.82-5.49s1.68-5.49,3.82-5.49,3.82,2.41,3.82,5.49-1.68,5.49-3.82,5.49Z"/>
    <path class="cls-3" d="M18.68,15.7c1.56,0,2.82,2.01,2.82,4.49s-1.26,4.49-2.82,4.49-2.82-2.01-2.82-4.49,1.26-4.49,2.82-4.49M18.68,13.7c-2.7,0-4.82,2.85-4.82,6.49s2.12,6.49,4.82,6.49,4.82-2.85,4.82-6.49-2.12-6.49-4.82-6.49h0Z"/>
  </g>
  <path class="cls-1" d="M18.43,21.34c-.77-.64-1.67-.33-2.43.21.36,1.81,1.43,3.11,2.68,3.11,1.48,0,2.69-1.81,2.8-4.12-2-.43-3.05.79-3.05.79Z"/>
</svg>