<?xml version="1.0" encoding="UTF-8"?>
<svg id="Layer_1" data-name="Layer 1" xmlns="http://www.w3.org/2000/svg" viewBox="0 0 36 28">
  <defs>
    <style>
      .cls-1 {
        fill: none;
        stroke: #231f20;
        stroke-linecap: round;
        stroke-linejoin: round;
        stroke-width: 2px;
      }

      .cls-2 {
        fill: #fff;
      }

      .cls-2, .cls-3 {
        stroke-width: 0px;
      }

      .cls-3 {
        fill: #231f20;
      }
    </style>
  </defs>
  <rect class="cls-3" x="6.36" y="5.85" width="5.99" height="12" rx="3" ry="3"/>
  <g>
    <path class="cls-3" d="M2.93,10.91c-.34,0-.67-.18-.85-.48-.23-.37-.19-.85.1-1.18l.99-1.13c.08-.09.17-.16.28-.22l6.21-3.35c.15-.08.31-.12.47-.12.25,0,.5.1.7.28l2.22,2.15c.26.25.36.63.27.98-.1.35-.37.62-.73.71l-9.42,2.32c-.08.02-.16.03-.24.03Z"/>
    <path class="cls-3" d="M10.13,5.43l2.22,2.15-9.42,2.32.99-1.13,6.21-3.35M10.13,3.43c-.32,0-.65.08-.95.24l-6.21,3.35c-.21.11-.4.26-.55.44l-.99,1.13c-.58.66-.66,1.61-.21,2.36.37.61,1.02.96,1.71.96.16,0,.32-.02.48-.06l9.42-2.32c.71-.17,1.26-.72,1.45-1.42.19-.7-.02-1.45-.54-1.96l-2.22-2.15c-.38-.37-.88-.56-1.39-.56h0Z"/>
  </g>
  <path class="cls-2" d="M7.23,13.72s-.38,3.11,2.81,3.04-2.81-3.04-2.81-3.04Z"/>
  <rect class="cls-3" x="24.05" y="5.85" width="5.99" height="12" rx="3" ry="3"/>
  <g>
    <path class="cls-3" d="M33.07,10.91c-.08,0-.16,0-.24-.03l-9.42-2.32c-.35-.09-.63-.36-.73-.71-.09-.35,0-.73.27-.98l2.22-2.15c.19-.19.44-.28.7-.28.16,0,.33.04.47.12l6.21,3.35c.1.06.2.13.28.22l.99,1.13c.29.33.33.81.1,1.18-.18.3-.51.48-.85.48Z"/>
    <path class="cls-3" d="M25.87,5.43l6.21,3.35.99,1.13-9.42-2.32,2.22-2.15M25.87,3.43c-.51,0-1.01.19-1.39.56l-2.22,2.15c-.52.51-.73,1.26-.54,1.96.19.7.75,1.25,1.45,1.42l9.42,2.32c.16.04.32.06.48.06.69,0,1.34-.36,1.71-.96.45-.75.37-1.7-.21-2.36l-.99-1.13c-.16-.18-.34-.33-.55-.44l-6.21-3.35c-.3-.16-.62-.24-.95-.24h0Z"/>
  </g>
  <path class="cls-2" d="M24.92,13.72s-.38,3.11,2.81,3.04-2.81-3.04-2.81-3.04Z"/>
  <polyline class="cls-1" points="14.14 22.57 18.16 19.51 22.32 22.47"/>
</svg>