<?xml version="1.0" encoding="UTF-8"?>
<svg id="Layer_1" data-name="Layer 1" xmlns="http://www.w3.org/2000/svg" viewBox="0 0 36 28">
  <defs>
    <style>
      .cls-1 {
        stroke: #000;
      }

      .cls-1, .cls-2 {
        stroke-linecap: round;
        stroke-linejoin: round;
        stroke-width: 2px;
      }

      .cls-1, .cls-3 {
        fill: #231f20;
      }

      .cls-2 {
        fill: none;
        stroke: #231f20;
      }

      .cls-3 {
        stroke-width: 0px;
      }
    </style>
  </defs>
  <g>
    <path class="cls-3" d="M11.54,9.25c-.12,0-.25-.02-.37-.07L2.14,5.64c-.41-.16-.66-.56-.63-1,.03-.44.34-.8.77-.9l1.46-.35c.08-.02.15-.03.23-.03.04,0,.08,0,.12,0l7,.86c.43.05.78.38.86.81l.57,3.04c.07.36-.06.72-.34.95-.18.15-.41.23-.64.23Z"/>
    <path class="cls-3" d="M3.97,4.36l7,.86.57,3.04L2.51,4.71l1.46-.35M3.97,2.36c-.16,0-.31.02-.46.05l-1.46.35c-.85.2-1.47.93-1.53,1.81-.06.87.45,1.68,1.26,2l9.03,3.55c.24.09.48.14.73.14.46,0,.91-.16,1.27-.46.56-.46.83-1.19.69-1.91l-.57-3.04c-.16-.86-.86-1.51-1.72-1.62l-7-.86c-.08,0-.16-.01-.24-.01h0Z"/>
  </g>
  <g>
    <path class="cls-3" d="M24.52,9.31c-.22,0-.44-.08-.62-.22-.28-.23-.42-.59-.36-.95l.52-3.05c.07-.43.42-.76.85-.82l6.99-.97s.09,0,.14,0c.07,0,.15,0,.22.02l1.46.33c.43.09.74.46.78.89.04.44-.21.84-.62,1.01l-8.98,3.69c-.12.05-.25.08-.38.08Z"/>
    <path class="cls-3" d="M32.03,4.3l1.46.32-8.98,3.69.52-3.05,6.99-.97M32.03,2.3c-.09,0-.18,0-.27.02l-6.99.97c-.86.12-1.55.78-1.7,1.64l-.52,3.05c-.12.72.15,1.44.72,1.9.36.29.8.44,1.25.44.26,0,.51-.05.76-.15l8.98-3.69c.81-.33,1.31-1.15,1.23-2.02s-.71-1.59-1.56-1.78l-1.46-.32c-.14-.03-.29-.05-.43-.05h0Z"/>
  </g>
  <path class="cls-1" d="M3.17,9.55s7.77,2.48,9.6,5.59c0,0-5.79.32-10.26,4.49,0,0,2.71-4.86,6.36-5.62,0,0-.3-1.99-5.7-4.47Z"/>
  <path class="cls-1" d="M32.83,9.35s-7.77,2.48-9.6,5.59c0,0,5.79.32,10.26,4.49,0,0-2.71-4.86-6.36-5.62,0,0,.3-1.99,5.7-4.47Z"/>
  <polyline class="cls-2" points="14.24 23.7 18.26 20.65 22.42 23.6"/>
</svg>