<?xml version="1.0" encoding="UTF-8"?>
<svg id="Layer_1" data-name="Layer 1" xmlns="http://www.w3.org/2000/svg" viewBox="0 0 62 100">
  <defs>
    <style>
      .cls-1, .cls-2 {
        stroke-miterlimit: 10;
      }

      .cls-1, .cls-2, .cls-3 {
        stroke: #231f20;
        stroke-width: 2px;
      }

      .cls-1, .cls-2, .cls-4 {
        fill: #fff;
      }

      .cls-2, .cls-3 {
        stroke-linecap: round;
      }

      .cls-5 {
        fill: #d34651;
      }

      .cls-5, .cls-6, .cls-4, .cls-7 {
        stroke-width: 0px;
      }

      .cls-6 {
        fill: #e57673;
      }

      .cls-3 {
        fill: none;
        stroke-linejoin: round;
      }

      .cls-7 {
        fill: #231f20;
      }
    </style>
  </defs>
  <g>
    <path class="cls-1" d="M12.87,52.67S-6.74,98.15,2.83,100.49s7.38-6.73,21.9-.49c14.52,6.25,4.89-7.22,21.49-1.95,16.59,5.27,18.11-5.95-3.36-46.94,0,0-18.58-25.47-29.98,1.56Z"/>
    <path class="cls-2" d="M19.04,64.09s8.8,8.19-10.91,36.47"/>
    <path class="cls-2" d="M27.25,64.09s-9.77,9.7,9.14,33.04"/>
  </g>
  <circle class="cls-1" cx="27.25" cy="26.12" r="24.42"/>
  <g>
    <rect class="cls-7" x="12.87" y="15.16" width="5.77" height="11.57" rx="2.89" ry="2.89"/>
    <g>
      <path class="cls-7" d="M9.57,20.07c-.34,0-.67-.18-.85-.48-.23-.37-.18-.85.1-1.18l.95-1.09c.08-.09.17-.16.28-.22l5.99-3.22c.15-.08.31-.12.47-.12.25,0,.51.1.7.28l2.14,2.07c.26.25.36.63.27.98s-.37.62-.73.71l-9.08,2.24c-.08.02-.16.03-.24.03Z"/>
      <path class="cls-7" d="M16.51,14.76l2.14,2.07-9.08,2.24.95-1.09,5.99-3.22M16.51,12.76c-.32,0-.65.08-.95.24l-5.99,3.22c-.21.11-.4.26-.55.44l-.95,1.09c-.58.66-.66,1.61-.21,2.36.37.61,1.02.96,1.71.96.16,0,.32-.02.48-.06l9.08-2.24c.71-.17,1.26-.72,1.45-1.42.19-.7-.02-1.45-.54-1.96l-2.14-2.07c-.38-.37-.88-.56-1.39-.56h0Z"/>
    </g>
    <path class="cls-4" d="M13.71,22.75s-.37,3,2.71,2.93-2.71-2.93-2.71-2.93Z"/>
    <rect class="cls-7" x="29.93" y="15.16" width="5.77" height="11.57" rx="2.89" ry="2.89"/>
    <g>
      <path class="cls-7" d="M38.62,20.07c-.08,0-.16,0-.24-.03l-9.08-2.24c-.35-.09-.63-.36-.73-.71s0-.73.27-.98l2.14-2.07c.19-.19.44-.28.7-.28.16,0,.32.04.47.12l5.99,3.22c.1.06.2.13.28.22l.95,1.09c.29.33.33.81.1,1.18-.18.3-.51.48-.85.48Z"/>
      <path class="cls-7" d="M31.68,14.76l5.99,3.22.95,1.09-9.08-2.24,2.14-2.07M31.68,12.76c-.51,0-1.01.19-1.39.56l-2.14,2.07c-.52.51-.73,1.26-.54,1.96.19.7.75,1.25,1.45,1.42l9.08,2.24c.16.04.32.06.48.06.69,0,1.34-.36,1.71-.96.45-.75.37-1.7-.21-2.36l-.95-1.09c-.16-.18-.34-.33-.55-.44l-5.99-3.22c-.3-.16-.62-.24-.95-.24h0Z"/>
    </g>
    <path class="cls-4" d="M30.77,22.75s-.37,3,2.71,2.93-2.71-2.93-2.71-2.93Z"/>
  </g>
  <g>
    <polygon class="cls-5" points="24.06 52.97 17.54 58.51 10.14 56.01 12.08 44.96 24.07 48.45 43.48 44.16 46.46 54.4 32.38 59.54 24.06 52.97"/>
    <path class="cls-7" d="M42.78,45.34l2.46,8.44-12.67,4.63-8.53-6.74-6.71,5.71-6.05-2.05,1.6-9.1,11.16,3.25,18.75-4.14M44.18,42.99l-1.83.4-18.25,4.03-10.67-3.1-2.14-.62-.39,2.2-1.6,9.1-.3,1.69,1.62.55,6.05,2.05,1.07.36.86-.74,5.46-4.65,7.24,5.72.88.69,1.05-.38,12.67-4.63,1.76-.64-.52-1.8-2.46-8.44-.52-1.8h0Z"/>
  </g>
  <g>
    <path class="cls-5" d="M33.25,57.95c-3.15,0-7.3-2.76-9.04-4.02-1.04,1.23-3.25,3.4-5.89,3.4-.72,0-1.42-.16-2.08-.48-2.5-1.19-4.17-3.25-4.36-5.38-.16-1.87.8-3.63,2.7-4.98.9-.64,1.9-.96,2.98-.96,2.66,0,5.13,2.01,6.39,3.23,1.08-1.24,3.33-3.13,7-3.13.76,0,1.56.08,2.37.25,3.06.63,4.99,2.69,5.15,5.51.16,2.8-1.5,5.57-3.78,6.32-.44.14-.92.22-1.44.22Z"/>
    <path class="cls-7" d="M17.55,46.55c3.32,0,6.48,3.78,6.48,3.78,0,0,2.07-3.68,6.91-3.68.67,0,1.39.07,2.17.23,6.39,1.32,4.82,8.73,1.26,9.91-.35.11-.72.17-1.12.17-3.69,0-9.22-4.41-9.22-4.41,0,0-2.59,3.8-5.71,3.8-.54,0-1.1-.11-1.66-.38-3.81-1.81-5.51-5.81-1.51-8.64.78-.55,1.59-.77,2.4-.77M17.55,44.55h0c-1.29,0-2.48.38-3.55,1.14-2.2,1.56-3.31,3.65-3.12,5.88.22,2.52,2.06,4.84,4.93,6.2.8.38,1.65.57,2.51.57,2.59,0,4.74-1.71,6.04-3.07,2.1,1.45,5.83,3.68,8.89,3.68.62,0,1.21-.09,1.75-.27,2.73-.9,4.65-4.05,4.46-7.33-.19-3.3-2.41-5.71-5.95-6.43-.87-.18-1.74-.27-2.57-.27-3.36,0-5.66,1.44-7.03,2.73-1.48-1.29-3.8-2.84-6.36-2.84h0Z"/>
  </g>
  <polyline class="cls-3" points="17.32 49.13 20.77 51.22 17.32 53.4"/>
  <polyline class="cls-3" points="31.94 49.13 27.84 50.78 31.94 53.4"/>
  <g>
    <path class="cls-7" d="M24.67,39.37c-2.08,0-3.71-2.34-3.71-5.32s1.63-5.32,3.71-5.32,3.71,2.34,3.71,5.32-1.63,5.32-3.71,5.32Z"/>
    <path class="cls-7" d="M24.67,29.72c1.5,0,2.71,1.94,2.71,4.32s-1.22,4.32-2.71,4.32-2.71-1.94-2.71-4.32,1.22-4.32,2.71-4.32M24.67,27.72c-2.64,0-4.71,2.78-4.71,6.32s2.07,6.32,4.71,6.32,4.71-2.78,4.71-6.32-2.07-6.32-4.71-6.32h0Z"/>
  </g>
  <path class="cls-6" d="M24.43,35.16c-.75-.61-1.61-.32-2.35.21.35,1.74,1.37,3,2.58,3,1.42,0,2.59-1.75,2.7-3.97-1.93-.42-2.94.76-2.94.76Z"/>
</svg>