<?xml version="1.0" encoding="UTF-8"?>
<svg id="Layer_1" data-name="Layer 1" xmlns="http://www.w3.org/2000/svg" viewBox="0 0 42 22">
  <defs>
    <style>
      .cls-1 {
        stroke: #231f20;
        stroke-linecap: round;
        stroke-linejoin: round;
        stroke-width: 2px;
      }

      .cls-1, .cls-2 {
        fill: #fff;
      }

      .cls-2, .cls-3 {
        stroke-width: 0px;
      }

      .cls-3 {
        fill: #231f20;
      }
    </style>
  </defs>
  <g>
    <polygon class="cls-2" points="16.51 12.09 9.98 17.61 2.58 15.11 4.52 4.12 16.52 7.59 35.95 3.32 38.94 13.51 24.84 18.63 16.51 12.09"/>
    <path class="cls-3" d="M35.26,4.5l2.46,8.39-12.69,4.61-8.54-6.7-6.72,5.68-6.06-2.04,1.6-9.05,11.17,3.23,18.77-4.12M36.65,2.15l-1.82.4-18.28,4.01L5.87,3.47l-2.14-.62-.39,2.19-1.6,9.05-.3,1.69,1.63.55,6.06,2.04,1.07.36.86-.73,5.47-4.63,7.26,5.69.87.69,1.04-.38,12.69-4.61,1.76-.64-.53-1.8-2.46-8.39-.52-1.79h0Z"/>
  </g>
  <g>
    <path class="cls-2" d="M25.71,17.05c-3.15,0-7.31-2.75-9.05-4-1.04,1.23-3.26,3.39-5.9,3.39-.72,0-1.42-.16-2.08-.47-2.51-1.18-4.18-3.24-4.37-5.36-.16-1.86.8-3.62,2.7-4.96.9-.63,1.9-.95,2.98-.95,2.67,0,5.14,2,6.39,3.22,1.08-1.23,3.33-3.11,7.01-3.11.76,0,1.56.08,2.37.25,3.07.63,5,2.68,5.16,5.49.16,2.78-1.5,5.55-3.78,6.29-.44.14-.92.21-1.44.21Z"/>
    <path class="cls-3" d="M10,5.7c3.32,0,6.48,3.76,6.48,3.76,0,0,2.08-3.66,6.92-3.66.67,0,1.39.07,2.17.23,6.4,1.31,4.82,8.69,1.26,9.85-.35.11-.73.16-1.12.16-3.7,0-9.23-4.39-9.23-4.39,0,0-2.59,3.78-5.71,3.78-.54,0-1.1-.11-1.66-.38-3.81-1.8-5.52-5.78-1.51-8.59.78-.55,1.6-.77,2.4-.77M10,3.7h0c-1.29,0-2.48.38-3.55,1.13-2.98,2.09-3.24,4.57-3.12,5.86.22,2.51,2.06,4.82,4.94,6.18.8.38,1.65.57,2.51.57,2.59,0,4.75-1.7,6.05-3.05,2.1,1.44,5.83,3.67,8.9,3.67.62,0,1.21-.09,1.75-.26,2.73-.9,4.66-4.03,4.47-7.3-.19-3.29-2.41-5.69-5.95-6.41-.87-.18-1.74-.27-2.57-.27-3.37,0-5.66,1.44-7.04,2.72-1.48-1.28-3.8-2.82-6.36-2.82h0Z"/>
  </g>
  <polyline class="cls-1" points="9.77 8.26 13.21 10.35 9.77 12.52"/>
  <polyline class="cls-1" points="24.4 8.26 20.3 9.91 24.4 12.52"/>
</svg>