<svg xmlns="http://www.w3.org/2000/svg" width="31" height="18" viewBox="0 0 31 18"><g fill="none" fill-rule="evenodd"><rect width="30" height="17" x=".5" y=".5" stroke="#AFE0BE" rx="8.5"/><path fill="#5EC17C" d="M14.184 6.312c0 1.144-1.276 1.98-3.421 1.98-2.156 0-3.41-.836-3.41-1.98 0-1.122 1.254-1.958 3.399-1.958 2.156 0 3.432.836 3.432 1.958zm-2.695 5.401h-1.276V9.942H6.33V8.919h8.855v1.023h-3.696v1.771zm2.673 1.892H7.463v-2.794h1.276v1.782h5.423v1.012zm-1.309-7.271c0-.605-.803-1.001-2.101-1.001-1.265 0-2.079.396-2.079 1.001 0 .572.814.957 2.079.957 1.298 0 2.101-.385 2.101-.957zm11.11 5.566c0 1.188-1.243 1.958-3.366 1.958s-3.355-.77-3.355-1.958c0-1.221 1.232-1.98 3.355-1.98s3.366.759 3.366 1.98zm-3.014-4.928c0 1.386-1.1 2.255-2.53 2.255-1.408 0-2.541-.869-2.541-2.255 0-1.353 1.111-2.343 2.541-2.343 1.419 0 2.53.979 2.53 2.343zm.308 1.639c.011-.363.033-.726.033-1.078h1.375V6.301H21.29c0-.363-.022-.726-.033-1.089h1.408V4.068h1.287v5.874h-1.287V8.611h-1.408zm1.386 3.289c0-.594-.748-.946-2.046-.946-1.276 0-2.046.352-2.046.946 0 .583.77.924 2.046.924 1.298 0 2.046-.341 2.046-.924zm-2.926-4.939c0-.715-.495-1.276-1.298-1.276-.781 0-1.287.583-1.287 1.276 0 .759.517 1.287 1.287 1.287.759 0 1.298-.55 1.298-1.287z"/></g></svg>