<svg xmlns="http://www.w3.org/2000/svg" width="70" height="70" viewBox="0 0 70 70">
    <g fill="none" fill-rule="evenodd">
        <path fill="#F2F3F5" d="M70 35.068c0-5.54-.476-10.617-1.268-14.69-.009-.07-.013-.14-.022-.21-.015-.121-.028-.243-.046-.364a21.133 21.133 0 0 0-.225-1.303l-.01-.046a20.55 20.55 0 0 0-.3-1.234c-.029-.107-.061-.215-.091-.324a22.582 22.582 0 0 0-.318-1.006c-.029-.086-.056-.173-.088-.258a21.48 21.48 0 0 0-1.725-3.69l-.064-.11a21.597 21.597 0 0 0-1.533-2.238l-.08-.102a21.887 21.887 0 0 0-6.304-5.43c-1.115-.795-2.881-1.511-5.119-2.116-.13-.035-.258-.07-.39-.103C48.01.708 41.862 0 35.04 0 28.02 0 21.707.752 17.278 1.947L17.072 2c-2.144.594-3.837 1.292-4.92 2.064-.02.012-.041.027-.063.039-.29.167-.574.346-.856.528-.118.074-.238.146-.354.224-.257.171-.505.354-.754.535-.135.098-.273.193-.405.294-.22.17-.433.348-.647.524-.153.127-.307.25-.456.38-.182.161-.36.33-.538.496-.168.159-.339.314-.503.477-.148.148-.29.304-.436.457-.181.192-.364.383-.539.58-.116.135-.227.273-.34.41a20.6 20.6 0 0 0-.564.69c-.09.116-.175.237-.26.356-.196.264-.39.527-.572.8-.04.06-.08.123-.118.184-.015.025-.03.048-.047.072a23.974 23.974 0 0 0-.59.95c-.01.02-.022.036-.032.055-.528.736-1.022 1.762-1.473 3.016-.187.477-.36.96-.514 1.453-.016.05-.027.101-.043.152a21.66 21.66 0 0 0-.698 3.098C.51 23.975 0 29.207 0 34.932c0 5.54.477 10.617 1.268 14.69.009.07.013.14.022.21.016.121.028.243.046.363.063.439.137.874.225 1.304l.01.046c.087.416.189.827.3 1.234l.091.324c.099.338.205.674.318 1.006.029.086.057.173.088.258.298.836.647 1.647 1.041 2.434l.111.214c.182.352.372.7.573 1.041.022.037.042.075.065.112.464.779.977 1.525 1.533 2.237l.08.102a21.935 21.935 0 0 0 2.868 2.999c1.06.916 2.21 1.731 3.435 2.432 1.116.794 2.881 1.51 5.119 2.114.13.036.26.071.39.104C21.99 69.292 28.14 70 34.96 70c7.022 0 13.334-.752 17.764-1.948l.206-.053c2.143-.594 3.836-1.292 4.918-2.064.021-.012.042-.027.064-.039.29-.167.575-.346.857-.528.118-.074.238-.147.354-.224.256-.171.505-.354.754-.535.134-.098.273-.193.404-.294.221-.17.433-.348.647-.524.153-.127.307-.25.456-.38.183-.161.36-.33.539-.496.167-.159.338-.314.502-.477.148-.148.291-.304.436-.457.181-.192.365-.383.539-.58.116-.135.228-.273.342-.41.191-.227.382-.455.562-.69.09-.117.175-.237.262-.356.195-.264.388-.527.57-.8.042-.062.08-.123.118-.184l.047-.073.03-.045c.191-.299.382-.598.56-.905.01-.019.022-.036.032-.054.528-.736 1.022-1.762 1.473-3.016.187-.476.36-.96.514-1.453.016-.05.028-.101.043-.152.306-1.004.54-2.04.698-3.098.84-4.14 1.35-9.372 1.35-15.097"/>
        <path fill="#8562EE" d="M17 21.889A3.889 3.889 0 0 1 20.889 18h13.04l2.544 5h12.638A3.889 3.889 0 0 1 53 26.889V47.11A3.889 3.889 0 0 1 49.111 51H20.89A3.889 3.889 0 0 1 17 47.111V21.89zM43.611 39H26.39a.389.389 0 0 0-.381.31L26 39.39v2.222c0 .188.133.345.31.381l.079.008H43.61a.389.389 0 0 0 .381-.31L44 41.61V39.39a.389.389 0 0 0-.389-.389zm0-7H26.39a.389.389 0 0 0-.381.31L26 32.39v2.222c0 .188.133.345.31.381l.079.008H43.61a.389.389 0 0 0 .381-.31L44 34.61V32.39a.389.389 0 0 0-.389-.389z"/>
    </g>
</svg>
