<svg width="35" height="35" viewBox="0 0 35 35" fill="none" xmlns="http://www.w3.org/2000/svg">
<rect width="35" height="35" rx="14" fill="#F2F3F5"/>
<rect x="13" y="13" width="10" height="7" fill="white"/>
<path fill-rule="evenodd" clip-rule="evenodd" d="M17.5 7.4375C22.3326 7.4375 26.25 11.3549 26.25 16.1875C26.25 19.3099 23.5104 22.9674 18.0316 27.16C17.7179 27.4006 17.2821 27.4006 16.9684 27.16L16.7414 26.9859C11.4144 22.8659 8.75 19.2662 8.75 16.1875C8.75 11.3549 12.6674 7.4375 17.5 7.4375ZM21.0096 13.7384C20.7441 13.4912 20.3289 13.5065 20.0821 13.7716L16.4684 17.6558L14.8947 16.128L14.8439 16.0838C14.5832 15.8773 14.2034 15.8979 13.9668 16.142C13.7143 16.4019 13.7204 16.8175 13.9803 17.0695L16.0353 19.0645L16.0864 19.1096C16.3516 19.3187 16.7383 19.2933 16.9728 19.0409L21.0429 14.6659L21.0862 14.6142C21.287 14.3491 21.2581 13.9698 21.0096 13.7384Z" fill="#447CFD"/>
</svg>
