<svg xmlns="http://www.w3.org/2000/svg" width="70" height="70" viewBox="0 0 70 70">
    <g fill="none" fill-rule="evenodd">
        <path fill="#F2F3F5" d="M68.732 20.377c-.009-.069-.013-.14-.022-.21-.015-.12-.028-.242-.046-.363-.063-.438-.136-.873-.225-1.303l-.01-.046c-.086-.416-.189-.827-.3-1.234-.029-.107-.061-.215-.091-.324-.098-.338-.205-.674-.318-1.006-.029-.086-.056-.173-.088-.258-.298-.836-.646-1.648-1.041-2.434l-.11-.214c-.183-.352-.373-.7-.574-1.041l-.064-.112c-.464-.779-.977-1.525-1.533-2.237l-.08-.102c-.855-1.082-1.807-2.08-2.848-2.982-.007-.004-.014-.01-.021-.017-1.06-.916-2.21-1.731-3.435-2.432-1.115-.794-2.881-1.51-5.119-2.115-.13-.035-.258-.07-.39-.103C48.01.708 41.862 0 35.04 0 28.02 0 21.707.752 17.278 1.947L17.072 2c-2.144.594-3.837 1.292-4.92 2.064-.02.012-.041.027-.063.039-.29.167-.574.346-.856.528-.118.074-.238.146-.354.224-.257.171-.505.354-.754.535-.135.098-.273.193-.405.294-.22.17-.433.348-.647.524-.153.127-.307.25-.456.38-.182.161-.36.33-.538.496-.168.159-.339.314-.503.477-.148.148-.29.304-.436.457-.181.192-.364.383-.539.58-.116.135-.227.273-.34.41-.192.227-.384.455-.564.69-.09.116-.175.237-.26.356-.196.264-.39.527-.572.8-.04.06-.08.123-.118.184-.015.025-.03.048-.047.072-.01.016-.019.031-.03.046-.191.299-.38.598-.56.905-.01.019-.022.035-.032.054-.528.736-1.022 1.762-1.473 3.016-.187.477-.36.96-.514 1.453-.016.05-.027.101-.043.152-.305 1.004-.54 2.04-.698 3.098C.51 23.975 0 29.207 0 34.932c0 5.54.477 10.617 1.268 14.69.009.07.013.14.022.21.016.121.028.243.046.363.063.439.137.874.225 1.304l.01.046c.087.416.189.827.3 1.234l.091.324c.099.338.205.674.318 1.006.029.086.057.173.088.258.298.836.647 1.647 1.041 2.434l.111.214c.182.352.372.7.573 1.041.022.037.042.075.065.112.464.779.977 1.525 1.533 2.237l.08.102c.854 1.082 1.807 2.079 2.847 2.982.007.004.014.01.021.017 1.06.916 2.21 1.731 3.435 2.432 1.116.794 2.881 1.51 5.119 2.114.13.036.26.071.39.104C21.99 69.292 28.14 70 34.96 70c7.022 0 13.334-.752 17.764-1.948l.206-.053c2.143-.594 3.836-1.292 4.918-2.064.021-.012.042-.027.064-.039.29-.167.575-.346.857-.528.118-.074.238-.147.354-.224.256-.171.505-.354.754-.535.134-.098.273-.193.404-.294.221-.17.433-.348.647-.524.153-.127.307-.25.456-.38.183-.161.36-.33.539-.496.167-.159.338-.314.502-.477.148-.148.291-.304.436-.457.181-.192.365-.383.539-.58.116-.135.228-.273.342-.41.191-.227.382-.455.562-.69.09-.117.175-.237.262-.356.195-.264.388-.527.57-.8.042-.062.08-.123.118-.184l.047-.073.03-.045c.191-.299.382-.598.56-.905.01-.019.022-.036.032-.054.528-.736 1.022-1.762 1.473-3.016.187-.476.36-.96.514-1.453.016-.05.028-.101.043-.152.306-1.004.54-2.04.698-3.098.84-4.14 1.35-9.372 1.35-15.097 0-5.54-.476-10.617-1.268-14.69z"/>
        <path fill="#03C75A" d="M52.444 19C54.408 19 56 20.592 56 22.556V41.35c0 2.932-1.8 5.563-4.532 6.627L36.29 53.886c-.83.323-1.75.323-2.58 0l-15.178-5.908C15.799 46.914 14 44.283 14 41.35V22.556C14 20.592 15.592 19 17.556 19h34.888zm-18.247 8h-2.474v5.37h-.919v-5.158h-2.423v13.816h2.423v-6.542h.92v7.16h2.473V27zm6.804 8.665h-2.625v2.327h-2.958v2.163h13.605v-2.163h-3.008v-2.327h-2.641v2.327h-2.373v-2.327zm-13.707-7.021h-5.75v9.926l1.22.017.295.001c1.436 0 3.678-.102 4.77-.376l-.184-2.034-.216.044c-.83.156-2.082.265-3.277.265v-5.826h3.142v-2.017zm20.51-.772h-11.25v2.169l3.845-.001-2.257.156.301 2.571h-1.838v2.182h11.131v-2.182h-1.755l.418-2.49-2.377-.237h3.781v-2.168zm-4.015 2.168l-.214 2.727H40.9l-.167-2.727h3.056z"/>
    </g>
</svg>
