<svg width="35" height="35" viewBox="0 0 35 35" fill="none" xmlns="http://www.w3.org/2000/svg">
<g clip-path="url(#clip0_2_242)">
<path d="M35 17.534C35 14.764 34.762 12.2255 34.366 10.189C34.3615 10.154 34.3595 10.119 34.355 10.084C34.3475 10.0235 34.341 9.9625 34.332 9.902C34.3005 9.683 34.264 9.4655 34.2195 9.2505L34.2145 9.2275C34.1715 9.0195 34.12 8.814 34.0645 8.6105C34.05 8.557 34.034 8.503 34.019 8.4485C33.97 8.2795 33.9165 8.1115 33.86 7.9455C33.8455 7.9025 33.832 7.859 33.816 7.8165C33.667 7.3985 33.493 6.9925 33.2955 6.5995L33.2405 6.4925C33.149 6.3165 33.054 6.1425 32.9535 5.972L32.9215 5.916C32.6895 5.5265 32.433 5.1535 32.155 4.7975L32.115 4.7465C31.6875 4.2055 31.2115 3.7065 30.691 3.2555C30.6875 3.2535 30.684 3.2505 30.6805 3.247C30.1505 2.789 29.5755 2.3815 28.963 2.031C28.4055 1.634 27.5225 1.276 26.4035 0.9735C26.3385 0.956 26.2745 0.9385 26.2085 0.922C24.005 0.354 20.931 0 17.52 0C14.01 0 10.8535 0.376 8.639 0.9735L8.536 1C7.464 1.297 6.6175 1.646 6.076 2.032C6.066 2.038 6.0555 2.0455 6.0445 2.0515C5.8995 2.135 5.7575 2.2245 5.6165 2.3155C5.5575 2.3525 5.4975 2.3885 5.4395 2.4275C5.311 2.513 5.187 2.6045 5.0625 2.695C4.995 2.744 4.926 2.7915 4.86 2.842C4.75 2.927 4.6435 3.016 4.5365 3.104C4.46 3.1675 4.383 3.229 4.3085 3.294C4.2175 3.3745 4.1285 3.459 4.0395 3.542C3.9555 3.6215 3.87 3.699 3.788 3.7805C3.714 3.8545 3.643 3.9325 3.57 4.009C3.4795 4.105 3.388 4.2005 3.3005 4.299C3.2425 4.3665 3.187 4.4355 3.1305 4.504C3.0345 4.6175 2.9385 4.7315 2.8485 4.849C2.8035 4.907 2.761 4.9675 2.7185 5.027C2.6205 5.159 2.5235 5.2905 2.4325 5.427C2.4125 5.457 2.3925 5.4885 2.3735 5.519C2.366 5.5315 2.3585 5.543 2.35 5.555C2.345 5.563 2.3405 5.5705 2.335 5.578C2.2395 5.7275 2.145 5.877 2.055 6.0305C2.05 6.04 2.044 6.048 2.039 6.0575C1.775 6.4255 1.528 6.9385 1.3025 7.5655C1.209 7.804 1.1225 8.0455 1.0455 8.292C1.0375 8.317 1.032 8.3425 1.024 8.368C0.8715 8.87 0.754 9.388 0.675 9.917C0.255 11.9875 0 14.6035 0 17.466C0 20.236 0.2385 22.7745 0.634 24.811C0.6385 24.846 0.6405 24.881 0.645 24.916C0.653 24.9765 0.659 25.0375 0.668 25.0975C0.6995 25.317 0.7365 25.5345 0.7805 25.7495L0.7855 25.7725C0.829 25.9805 0.88 26.186 0.9355 26.3895L0.981 26.5515C1.0305 26.7205 1.0835 26.8885 1.14 27.0545C1.1545 27.0975 1.1685 27.141 1.184 27.1835C1.333 27.6015 1.5075 28.007 1.7045 28.4005L1.76 28.5075C1.851 28.6835 1.946 28.8575 2.0465 29.028C2.0575 29.0465 2.0675 29.0655 2.079 29.084C2.311 29.4735 2.5675 29.8465 2.8455 30.2025L2.8855 30.2535C3.3125 30.7945 3.789 31.293 4.309 31.7445C4.3125 31.7465 4.316 31.7495 4.3195 31.753C4.8495 32.211 5.4245 32.6185 6.037 32.969C6.595 33.366 7.4775 33.724 8.5965 34.026C8.6615 34.044 8.7265 34.0615 8.7915 34.078C10.995 34.646 14.07 35 17.48 35C20.991 35 24.147 34.624 26.362 34.026L26.465 33.9995C27.5365 33.7025 28.383 33.3535 28.924 32.9675C28.9345 32.9615 28.945 32.954 28.956 32.948C29.101 32.8645 29.2435 32.775 29.3845 32.684C29.4435 32.647 29.5035 32.6105 29.5615 32.572C29.6895 32.4865 29.814 32.395 29.9385 32.3045C30.0055 32.2555 30.075 32.208 30.1405 32.1575C30.251 32.0725 30.357 31.9835 30.464 31.8955C30.5405 31.832 30.6175 31.7705 30.692 31.7055C30.7835 31.625 30.872 31.5405 30.9615 31.4575C31.045 31.378 31.1305 31.3005 31.2125 31.219C31.2865 31.145 31.358 31.067 31.4305 30.9905C31.521 30.8945 31.613 30.799 31.7 30.7005C31.758 30.633 31.814 30.564 31.871 30.4955C31.9665 30.382 32.062 30.268 32.152 30.1505C32.197 30.092 32.2395 30.032 32.283 29.9725C32.3805 29.8405 32.477 29.709 32.568 29.5725C32.589 29.5415 32.608 29.511 32.627 29.4805L32.6505 29.444L32.6655 29.4215C32.761 29.272 32.8565 29.1225 32.9455 28.969C32.9505 28.9595 32.9565 28.951 32.9615 28.942C33.2255 28.574 33.4725 28.061 33.698 27.434C33.7915 27.196 33.878 26.954 33.955 26.7075C33.963 26.6825 33.969 26.657 33.9765 26.6315C34.1295 26.1295 34.2465 25.6115 34.3255 25.0825C34.7455 23.0125 35.0005 20.3965 35.0005 17.534" fill="#F2F3F5"/>
<path d="M17.5 8C21.9185 8 25.5 11.52 25.5 15.862C25.5 20.204 18.8335 27 17.5 27C16.1665 27 9.5 20.204 9.5 15.862C9.5 11.52 13.0815 8 17.5 8ZM17.5 12.6665C15.843 12.6665 14.5 14.01 14.5 15.6665C14.5 17.3235 15.843 18.6665 17.5 18.6665C19.157 18.6665 20.5 17.3235 20.5 15.6665C20.5 14.01 19.157 12.6665 17.5 12.6665Z" fill="#58C1F9"/>
</g>
<defs>
<clipPath id="clip0_2_242">
<rect width="35" height="35" fill="white"/>
</clipPath>
</defs>
</svg>
