<svg width="36" height="36" viewBox="0 0 36 36" fill="none" xmlns="http://www.w3.org/2000/svg">
<g clip-path="url(#clip0_302_5404)">
<path d="M35.8771 17.5938C35.8771 14.8238 35.6391 12.2853 35.2431 10.2488C35.2386 10.2138 35.2366 10.1788 35.2321 10.1438C35.2246 10.0833 35.2181 10.0223 35.2091 9.96175C35.1776 9.74275 35.1411 9.52525 35.0966 9.31025L35.0916 9.28725C35.0486 9.07925 34.9971 8.87375 34.9416 8.67025C34.9271 8.61675 34.9111 8.56275 34.8961 8.50825C34.8471 8.33925 34.7936 8.17125 34.7371 8.00525C34.7226 7.96225 34.7091 7.91875 34.6931 7.87625C34.5441 7.45825 34.3701 7.05225 34.1726 6.65925L34.1176 6.55225C34.0261 6.37625 33.9311 6.20225 33.8306 6.03175L33.7986 5.97575C33.5666 5.58625 33.3101 5.21325 33.0321 4.85725L32.9921 4.80625C32.5646 4.26525 32.0886 3.76625 31.5681 3.31525C31.5646 3.31325 31.5611 3.31025 31.5576 3.30675C31.0276 2.84875 30.4526 2.44125 29.8401 2.09075C29.2826 1.69375 28.3996 1.33575 27.2806 1.03325C27.2156 1.01575 27.1516 0.998253 27.0856 0.981753C24.8821 0.413753 21.8081 0.0597534 18.3971 0.0597534C14.8871 0.0597534 11.7306 0.435753 9.51608 1.03325L9.41308 1.05975C8.34108 1.35675 7.49458 1.70575 6.95308 2.09175C6.94308 2.09775 6.93258 2.10525 6.92158 2.11125C6.77658 2.19475 6.63457 2.28425 6.49358 2.37525C6.43458 2.41225 6.37458 2.44825 6.31658 2.48725C6.18808 2.57275 6.06407 2.66425 5.93958 2.75475C5.87208 2.80375 5.80308 2.85125 5.73708 2.90175C5.62708 2.98675 5.52058 3.07575 5.41358 3.16375C5.33708 3.22725 5.26008 3.28875 5.18558 3.35375C5.09457 3.43425 5.00558 3.51875 4.91658 3.60175C4.83258 3.68125 4.74708 3.75875 4.66508 3.84025C4.59108 3.91425 4.52008 3.99225 4.44708 4.06875C4.35658 4.16475 4.26508 4.26025 4.17758 4.35875C4.11958 4.42625 4.06408 4.49525 4.00758 4.56375C3.91158 4.67725 3.81558 4.79125 3.72558 4.90875C3.68058 4.96675 3.63808 5.02725 3.59558 5.08675C3.49758 5.21875 3.40058 5.35025 3.30958 5.48675C3.28958 5.51675 3.26958 5.54825 3.25058 5.57875C3.24308 5.59125 3.23558 5.60275 3.22708 5.61475C3.22207 5.62275 3.21758 5.63025 3.21208 5.63775C3.11658 5.78725 3.02208 5.93675 2.93208 6.09025C2.92708 6.09975 2.92108 6.10775 2.91608 6.11725C2.65208 6.48525 2.40508 6.99825 2.17958 7.62525C2.08608 7.86375 1.99958 8.10525 1.92258 8.35175C1.91458 8.37675 1.90908 8.40225 1.90108 8.42775C1.74858 8.92975 1.63108 9.44775 1.55208 9.97675C1.13208 12.0473 0.877075 14.6633 0.877075 17.5258C0.877075 20.2958 1.11558 22.8343 1.51108 24.8708C1.51558 24.9058 1.51758 24.9408 1.52208 24.9758C1.53008 25.0363 1.53608 25.0973 1.54508 25.1573C1.57658 25.3768 1.61358 25.5943 1.65758 25.8093L1.66258 25.8323C1.70608 26.0403 1.75708 26.2458 1.81258 26.4493L1.85808 26.6113C1.90758 26.7803 1.96058 26.9483 2.01708 27.1143C2.03158 27.1573 2.04558 27.2008 2.06108 27.2433C2.21008 27.6613 2.38458 28.0668 2.58158 28.4603L2.63708 28.5673C2.72808 28.7433 2.82308 28.9173 2.92358 29.0878C2.93458 29.1063 2.94458 29.1253 2.95608 29.1438C3.18808 29.5333 3.44458 29.9063 3.72258 30.2623L3.76258 30.3133C4.18958 30.8543 4.66608 31.3528 5.18608 31.8043C5.18958 31.8063 5.19308 31.8093 5.19658 31.8128C5.72657 32.2708 6.30158 32.6783 6.91408 33.0288C7.47208 33.4258 8.35458 33.7838 9.47358 34.0858C9.53858 34.1038 9.60358 34.1213 9.66858 34.1378C11.8721 34.7058 14.9471 35.0598 18.3571 35.0598C21.8681 35.0598 25.0241 34.6838 27.2391 34.0858L27.3421 34.0593C28.4136 33.7623 29.2601 33.4133 29.8011 33.0273C29.8116 33.0213 29.8221 33.0138 29.8331 33.0078C29.9781 32.9243 30.1206 32.8348 30.2616 32.7438C30.3206 32.7068 30.3806 32.6703 30.4386 32.6318C30.5666 32.5463 30.6911 32.4548 30.8156 32.3643C30.8826 32.3153 30.9521 32.2678 31.0176 32.2173C31.1281 32.1323 31.2341 32.0433 31.3411 31.9553C31.4176 31.8918 31.4946 31.8303 31.5691 31.7653C31.6606 31.6848 31.7491 31.6003 31.8386 31.5173C31.9221 31.4378 32.0076 31.3603 32.0896 31.2788C32.1636 31.2048 32.2351 31.1268 32.3076 31.0503C32.3981 30.9543 32.4901 30.8588 32.5771 30.7603C32.6351 30.6928 32.6911 30.6238 32.7481 30.5553C32.8436 30.4418 32.9391 30.3278 33.0291 30.2103C33.0741 30.1518 33.1166 30.0918 33.1601 30.0323C33.2576 29.9003 33.3541 29.7688 33.4451 29.6323C33.4661 29.6013 33.4851 29.5708 33.5041 29.5403L33.5276 29.5038L33.5426 29.4813C33.6381 29.3318 33.7336 29.1823 33.8226 29.0288C33.8276 29.0193 33.8336 29.0108 33.8386 29.0018C34.1026 28.6338 34.3496 28.1208 34.5751 27.4938C34.6686 27.2558 34.7551 27.0138 34.8321 26.7673C34.8401 26.7423 34.8461 26.7168 34.8536 26.6913C35.0066 26.1893 35.1236 25.6713 35.2026 25.1423C35.6226 23.0723 35.8771 20.4563 35.8771 17.5938Z" fill="#F5F6F8"/>
<path fill-rule="evenodd" clip-rule="evenodd" d="M10.891 20.0662C10.5843 24.1933 14.2457 27.5598 18.3845 27.5598C22.5234 27.5598 25.8781 24.2051 25.8781 20.0662C25.8781 20.0662 26.066 17.3261 23.5203 14.7804C20.9746 12.2347 18.5437 10.9625 18.515 9.13964C18.515 9.13964 18.4546 8.60055 18.4508 8.14118C18.4493 7.95014 18.1654 7.74717 18.0024 7.8469C17.1875 8.34563 15.6695 9.46344 15.4864 10.9584C15.4864 10.9584 15.3129 12.087 15.6312 13.2731C15.9496 14.4592 16.6612 16.287 16.6612 16.287C16.6612 16.287 17.1393 17.2431 16.1437 17.7416C15.1482 18.24 14.5666 17.1669 14.5666 17.1669C14.5666 17.1669 14.0329 16.2606 13.7082 15.4106C13.6449 15.2449 13.4601 15.165 13.3134 15.2649C12.7117 15.6746 11.3302 16.9351 10.891 20.0662Z" fill="#F74848"/>
</g>
<defs>
<clipPath id="clip0_302_5404">
<rect width="35" height="35" fill="white" transform="translate(0.877075 0.0597534)"/>
</clipPath>
</defs>
</svg>
