<svg width="10" height="11" viewBox="0 0 10 11" xmlns="http://www.w3.org/2000/svg" xmlns:xlink="http://www.w3.org/1999/xlink"><title>mw_ico_member_10x11_bbbbbb</title><defs><path id="a" d="M0 0h10v10.852H0z"/><path d="M5 5.22a2.5 2.5 0 1 1 0-5 2.5 2.5 0 0 1 0 5zm1.364.556C8.372 5.776 10 7.084 10 8.699a1.6 1.6 0 0 1-1.101 1.52c-1.13.371-2.43.557-3.899.557-1.469 0-2.768-.186-3.899-.557A1.6 1.6 0 0 1 0 8.7c0-1.615 1.628-2.923 3.636-2.923h2.728z" id="b"/></defs><g fill="none" fill-rule="evenodd"><use fill="#BBB" xlink:href="#b"/></g></svg>