<?xml version="1.0" encoding="UTF-8"?>
<svg id="Layer_1" data-name="Layer 1" xmlns="http://www.w3.org/2000/svg" viewBox="0 0 200 300">
  <defs>
    <style>
      .cls-1 {
        fill: #000;
      }

      .cls-1, .cls-2, .cls-3 {
        stroke-width: 0px;
      }

      .cls-2 {
        fill: #765974;
      }

      .cls-3 {
        fill: #fff;
      }
    </style>
  </defs>
  <g>
    <path class="cls-1" d="M95.29,230.43c-5.8-.3-11.71-.36-17.56-.98-5.16-.55-10.31-1.52-15.37-2.7-6.13-1.43-11.46-4.54-15.77-9.14-3.35,2.3-6.39,4.54-9.57,6.53-3.95,2.47-8.01,4.77-12.07,7.07-.46.26-1.21,0-1.83,0,.05-.62-.13-1.53.2-1.81,1.63-1.34,3.29-2.71,5.13-3.72,5.47-2.99,11.03-5.81,16.58-8.71-2.95-4.96-3.16-5.31-7.55-3.14-4.11,2.03-8,2-11.99.36-2.3-.94-4.33-.67-6.36.5-3.1,1.79-6.19,3.6-9.28,5.42-.72.42-1.41.88-2.12,1.32l-.57-.51c.34-.52.55-1.23,1.03-1.52,4.39-2.64,8.76-5.3,13.28-7.7,1.04-.55,2.77-.48,3.93-.03,4.97,1.9,9.47.83,13.8-1.8q-1.64-4.35-6.36-4.36c-6.64,0-13.28,0-20-.25,7.47-.64,14.93-1.28,22.75-1.94-.77-2.19-1.49-4.35-2.3-6.47-3.49-9.16-3.72-18.3-.32-27.58,2.02-5.52,1.8-5.56-2.93-9.27-8.12-6.36-13.93-14.35-17.92-23.93-3.29-7.91-2.79-15.96-2.22-24.02,1.45-20.72,5.33-41.01,12.9-60.39,2.88-7.36,6.86-14.32,10.69-21.26,1.37-2.48,3.55-4.64,5.74-6.49,3.79-3.2,8.88-2.73,12.22.9,7.68,8.36,13.11,18.15,16.38,28.91,5.58,18.37,10.58,36.91,15.83,55.38.26.92.56,1.82.87,2.8,5.77-.84,11.39-1.66,17.14-2.5,1.21-8.79,2.24-17.52,3.63-26.2,2.73-17.04,6.19-33.9,13.86-49.56,2.14-4.37,5-7.77,9.83-9.71,3.81-1.53,7.01-1.08,9.73,1.31,3.47,3.05,6.87,6.36,9.54,10.11,12.78,17.98,20.83,38.03,25,59.64.99,5.12,1.66,10.32,2.19,15.52.7,6.94-1.14,13.32-5.24,18.94-2.62,3.6-5.51,7.02-8.42,10.4-1.25,1.45-1.65,2.57-.46,4.3,5.84,8.55,8.02,18.33,9.09,28.4.35,3.33.06,6.73.06,10.44,3.53-.12,6.87.65,9.78-2.29,4.02-4.06,9.03-5.07,14.5-3.55.7.2,1.27.9,1.9,1.37-.7.32-1.37.77-2.1.91-.64.12-1.37-.01-2.01-.2-4.01-1.15-7.56-.18-10.46,2.65-2.41,2.35-5.22,3.29-8.41,3.08-2.94-.2-4.48.98-4.96,3.85-.17,1.01-.7,1.96-1.11,3.07,3.8,1.25,7.16,2.58,11.15,1.18,4.03-1.41,8.36-1.85,12.57-.36.84.3,1.5,1.13,2.24,1.72-.85.22-1.84.84-2.54.61-5-1.67-9.72-.63-14.5.94-1.08.36-2.47.02-3.66-.23-1.98-.43-3.92-1.06-6.14-1.67-.89,1.81-1.78,3.6-2.89,5.83,1.81.85,3.52,1.64,5.23,2.44,2.8,1.32,5.6,2.66,8.41,3.97.52.24,1.11.59,1.62.52,5.78-.78,10.46,2.41,15.52,4.22.54.19,1.15.43,1.5.84.39.45.53,1.12.77,1.7-.59.12-1.28.49-1.76.31-2.17-.82-4.27-1.82-6.41-2.72-1.51-.64-3.02-1.75-4.55-1.78-7.45-.15-13.12-4.82-19.61-7.37-.43-.17-.85-.39-1.52-.69-6.94,13.05-19.79,17.87-32.17,23.52,3.25,12.36,6.13,24.99,9.94,37.34,3.82,12.36,8.58,24.43,13.07,37.04h-68.2c-.68-9.05.75-17.67,4.8-25.51,3.56-6.88,5-13.91,4.85-21.52-.15-7.25-.03-14.51-.03-21.8ZM151.12,162.95c-2.39-11.4-6.54-24.34-20.3-31.9-5.4-2.97-10.51-3.23-16.13-1.36-3.13,1.04-4.74,3.19-5.35,6.24-2.21,11.06-1.86,22.11,1.78,32.75,1.92,5.6,5.09,10.81,8.05,15.99,1.74,3.05,4.9,4.49,8.4,4.37,11.26-.37,23.95-7.49,23.55-26.09ZM93.82,164.46c.1-6.99-1.43-13.7-4.21-20.04-4.68-10.67-16.93-13.98-24.92-6.45-11.96,11.28-15.73,27.78-9.99,42.91,2.06,5.44,5.75,9.52,11.19,11.93,7.82,3.47,20.66-2.7,23.75-9.26,2.89-6.15,4.04-12.45,4.19-19.09Z"/>
    <path class="cls-1" d="M15.6,299.12c-1.46-5.36-2.9-10.87-4.47-16.36-2.39-8.37-4.85-16.71-7.28-25.06-.65-2.23-1.45-4.43-1.87-6.71-.77-4.15,2-7.91,6.13-8.36.63-.07,1.52.68,2.01,1.28,5.03,6.22,7.59,13.55,9.73,21.15,2.38,8.46,5.16,16.82,7.8,25.21.9,2.85,1.89,5.68,2.94,8.85h-14.99Z"/>
    <path class="cls-3" d="M151.12,162.95c.39,18.6-12.29,25.72-23.55,26.09-3.5.11-6.66-1.33-8.4-4.37-2.96-5.19-6.14-10.39-8.05-15.99-3.64-10.64-3.98-21.68-1.78-32.75.61-3.05,2.22-5.19,5.35-6.24,5.62-1.87,10.73-1.61,16.13,1.36,13.76,7.57,17.91,20.5,20.3,31.9ZM131.11,166.83c.17-.12.34-.24.51-.36-1.67-4.59-3.12-9.28-5.1-13.73-.96-2.15-2.39-5.09-5.52-4.1-2.82.9-3.18,3.86-3.45,6.52-.02.19-.04.39-.01.58.76,4.86,1.32,9.76,2.42,14.54.34,1.5,2.21,3.81,3.25,3.75,2.18-.14,4.56-1.27,6.31-2.67,1.05-.84,1.09-2.97,1.58-4.52Z"/>
    <path class="cls-3" d="M93.82,164.46c-.15,6.64-1.29,12.95-4.19,19.09-3.09,6.56-15.93,12.73-23.75,9.26-5.43-2.41-9.12-6.49-11.19-11.93-5.74-15.12-1.96-31.63,9.99-42.91,7.99-7.53,20.24-4.22,24.92,6.45,2.78,6.34,4.31,13.05,4.21,20.04ZM86.61,171.03c0-.48.06-.98,0-1.45-.75-5.37-1.24-10.87-5.65-14.81-2.63-2.35-4.46-1.93-6.24,1.18-3.22,5.62-1.87,17.22,2.56,21.94,1.5,1.59,3.21,1.94,5.25,1.05,3.54-1.54,4.15-4.53,4.08-7.91Z"/>
    <path class="cls-1" d="M131.11,166.83c-.49,1.55-.52,3.67-1.58,4.52-1.75,1.4-4.13,2.53-6.31,2.67-1.04.07-2.91-2.25-3.25-3.75-1.1-4.78-1.66-9.68-2.42-14.54-.03-.19,0-.39.01-.58.27-2.66.63-5.62,3.45-6.52,3.12-1,4.56,1.95,5.52,4.1,1.98,4.45,3.43,9.14,5.1,13.73-.17.12-.34.24-.51.36Z"/>
    <path class="cls-1" d="M86.61,171.03c.08,3.37-.53,6.37-4.08,7.91-2.04.89-3.76.54-5.25-1.05-4.43-4.71-5.78-16.31-2.56-21.94,1.78-3.11,3.61-3.53,6.24-1.18,4.4,3.93,4.89,9.44,5.65,14.81.07.47,0,.97,0,1.45Z"/>
  </g>
  <path class="cls-2" d="M60.54,129.03s-18.15,11.37-25.98,34.95c0,0-11.89-8.03-24.1-34.95,0,0-9.94-53.06,32.24-97.34,6.26-6.57,14.71,46.64,17.84,97.34Z"/>
  <path class="cls-2" d="M124.39,118.39s-7.66-78.37,9.7-88.58c5.32-3.13,36.33,35.11,40.38,74.18,1.88,18.15-7.2,26.29-14.71,36.31,0,0-12.52-11.27-35.37-21.91Z"/>
  <path class="cls-2" d="M95.9,186.35s3.05-3.24,7.2-.71c.8.49-.04,3.71-2.56,4.29s-4.77-1.99-4.64-3.58Z"/>
  <polygon class="cls-1" points="54.51 145.05 96.78 168.41 91.96 127.29 70.72 128.5 54.51 145.05"/>
  <polygon class="cls-1" points="105.09 163.98 144.66 138.1 120.72 123.43 101.23 129.87 105.09 163.98"/>
</svg>