<?xml version="1.0" encoding="UTF-8"?>
<svg id="Layer_1" data-name="Layer 1" xmlns="http://www.w3.org/2000/svg" viewBox="0 0 100 200">
  <defs>
    <style>
      .cls-1 {
        fill: #000;
      }

      .cls-1, .cls-2 {
        stroke-width: 0px;
      }

      .cls-2 {
        fill: #353535;
      }
    </style>
  </defs>
  <path class="cls-1" d="M87.35,200H20.91c-.09-14.07-.38-28.14-.24-42.2.27-25.36.82-50.73,1.17-76.09.02-1.35-.33-3-1.12-4.03-11.32-14.79-11.32-30.56-3.76-46.73,4.28-9.16,8.75-11.06,18.8-9.86,1.42.17,3.31-.07,4.36-.91,6.37-5.1,13.17-5.6,20.12-1.65,1.72.98,4.26,1.36,6.21.96,7.75-1.6,15.11.95,19.22,7.66,5.76,9.4,7.52,19.98,6.03,30.62-.84,5.97-4.42,11.52-6.55,17.34-.83,2.26-1.61,4.74-1.54,7.1,1.17,39.27,2.47,78.53,3.75,117.79Z"/>
  <path class="cls-2" d="M31.13,27.4s7.84,4.09,2.32,14.92-10.77,4.57-10.77,4.57c0,0-6.47-2.86-2.25-13.97s10.7-5.52,10.7-5.52Z"/>
  <path class="cls-2" d="M46.09,20.72s11.07.2,10.79,11.72-12.33,12.74-12.33,12.74c0,0-6.61,1.16-7.63-11.79-1.02-12.95,9.17-12.67,9.17-12.67Z"/>
  <path class="cls-2" d="M65.88,25.15s7.84.48,9.13,7.5-.27,13.22-5.59,16.69-9.4-10.49-9.4-10.49c0,0-2.93-11.86,5.86-13.7Z"/>
  <path class="cls-2" d="M55.18,45.21s-7.71,2.97-19.77,1.81c0,0-8.99,5.79-6.4,15.19,2.59,9.4,17.85,7.7,17.85,7.7,0,0,16.08.95,20.03-10.97,0,0-.89-7.17-11.72-13.74Z"/>
</svg>